<svg width="60" height="56" viewBox="0 0 60 56" fill="none" xmlns="http://www.w3.org/2000/svg">
<path d="M15.9014 5.54044C15.7194 5.17007 15.6292 4.6485 15.6266 4.13746C15.624 3.62712 15.7087 3.10982 15.8914 2.74844C16.3114 1.88596 17.1488 1.20397 18.0617 0.961969C18.3282 0.891098 18.7187 0.884692 19.1048 0.923402C19.4921 0.962225 19.89 1.04796 20.1727 1.17094L20.1727 1.17094L20.1736 1.17137C21.3508 1.6982 22.0441 2.78568 22.0441 4.12931C22.0441 4.64385 21.9715 5.07389 21.8031 5.46333C21.6347 5.85284 21.3733 6.1953 21.0048 6.53864L21.0048 6.53865L21.004 6.53942C19.397 8.0031 16.8665 7.50681 15.9014 5.54044ZM15.9014 5.54044L15.9912 5.49633L15.9014 5.54038C15.9014 5.5404 15.9014 5.54042 15.9014 5.54044ZM19.352 2.73239L19.352 2.73239L19.351 2.73195C19.1299 2.63837 18.9631 2.6008 18.7937 2.61212C18.6225 2.62356 18.4382 2.68556 18.1831 2.81087C17.6927 3.06186 17.3225 3.62173 17.3225 4.1089C17.3225 4.80238 17.9058 5.4878 18.6347 5.62243L18.635 5.62248C19.0823 5.70656 19.5514 5.50876 19.8895 5.1625C20.2275 4.81635 20.4186 4.33809 20.3297 3.88324L20.3292 3.88046C20.2979 3.69185 20.1632 3.44823 19.9738 3.22482C19.7852 3.00238 19.5559 2.816 19.352 2.73239Z" fill="#B01C1A" stroke="#B01C1A" stroke-width="0.2"/>
<path d="M31.7107 4.65723L31.7101 4.65767C31.2855 4.94835 30.7387 5.43017 30.2279 5.94222C29.7171 6.45429 29.2365 7.00253 28.9466 7.42813L28.9461 7.42884C28.3403 8.33471 27.6637 9.80362 27.4162 10.7852C27.1178 11.9206 26.9755 13.6653 27.0162 15.6987C27.0178 15.7859 27.0192 15.8698 27.0206 15.9505C27.0278 16.3832 27.0335 16.7223 27.058 16.9837C27.0868 17.2908 27.143 17.5177 27.2818 17.6684C27.4238 17.8226 27.6321 17.8764 27.9059 17.8926C28.14 17.9063 28.4427 17.8932 28.8275 17.8764C28.8937 17.8736 28.9623 17.8706 29.0334 17.8676L29.0293 17.7677M31.7107 4.65723L39.3548 8.7344C38.7075 12.9769 35.5749 16.4567 31.3952 17.5583L31.395 17.5584C30.6837 17.7444 30.035 17.8266 29.0334 17.8676L29.0293 17.7677M31.7107 4.65723C33.148 3.68974 35.0352 2.99026 36.7 2.80462C37.0938 2.75279 37.7801 2.73247 38.22 2.7427L31.7107 4.65723ZM29.0293 17.7677C30.0265 17.7269 30.6676 17.6453 31.3697 17.4616C35.5113 16.3701 38.6149 12.9219 39.256 8.71883L29.0293 17.7677ZM37.7518 6.39104L37.7518 6.39047C37.7722 5.53757 37.7797 5.02587 37.7684 4.72869C37.7627 4.57899 37.7524 4.4925 37.7397 4.44589C35.9349 4.62733 35.2366 4.80033 34.0887 5.34069C33.0404 5.83586 32.4691 6.22762 31.6016 7.04666C30.2422 8.35915 29.3671 9.92254 28.9745 11.7592C28.895 12.1377 28.7934 13.3128 28.7527 14.374C28.7527 14.3742 28.7527 14.3743 28.7527 14.3744L28.6952 16.1904L29.3773 16.1378C33.2519 15.8046 36.4734 13.0704 37.4905 9.25417L37.4908 9.2533C37.6702 8.60363 37.7212 8.07436 37.7518 6.39104ZM37.7703 4.34233C37.8823 4.33212 37.8925 4.68918 37.8517 6.39286L37.7703 4.34233Z" fill="#B01C1A" stroke="#B01C1A" stroke-width="0.2"/>
<path d="M52.0332 6.27168L52.033 6.27174C51.528 6.5009 51.1725 6.8662 50.9866 7.33735C50.8039 7.80067 50.7886 8.35767 50.9435 8.97474C50.9431 8.97547 50.9426 8.97625 50.9422 8.97705C50.9309 8.99634 50.9101 9.02574 50.8764 9.06757C50.8095 9.15055 50.7004 9.27177 50.5387 9.4409C50.2158 9.77859 49.6898 10.3003 48.8885 11.0755C47.2863 12.6257 44.5876 15.1858 40.2221 19.3074C40.2221 19.3074 40.2221 19.3074 40.2221 19.3074L29.4339 29.4819L16.4075 29.5328L3.33154 29.5838L3.3098 29.5839L3.29006 29.593L2.78126 29.8276L2.78124 29.8276C2.11912 30.1332 1.5335 30.7001 1.17788 31.3712C1.17788 31.3712 1.17788 31.3712 1.17787 31.3712L1.26623 31.4181C1.02201 31.8771 0.991484 32.0302 1.00166 32.9483L52.0332 6.27168ZM52.0332 6.27168C52.5769 6.02586 53.0959 6.01421 53.6429 6.27213M52.0332 6.27168L43.1803 29.4868L49.9092 22.1819C53.1711 18.6414 54.8948 16.7783 55.8324 15.8116C56.3022 15.3271 56.5706 15.0721 56.7345 14.9438C56.817 14.8793 56.8657 14.8529 56.8948 14.843C56.9168 14.8356 56.924 14.8384 56.9324 14.8417L56.9338 14.8422C57.3243 14.989 57.7846 14.9819 58.204 14.8599C58.6232 14.7379 59.0126 14.4979 59.2573 14.1656C59.5954 13.7153 59.7492 13.223 59.7183 12.7363C59.6874 12.2498 59.4724 11.7771 59.0874 11.3648L59.0872 11.3645C58.4183 10.6531 57.152 9.42451 56.0096 8.35438C55.4381 7.81908 54.8967 7.32267 54.4757 6.94963C54.2653 6.76318 54.0843 6.60703 53.9444 6.4921C53.8745 6.43467 53.8141 6.38694 53.765 6.35065C53.7184 6.31618 53.6756 6.28723 53.6429 6.27213M53.6429 6.27213C53.6427 6.27205 53.6426 6.27197 53.6424 6.2719L53.6007 6.3628M53.6429 6.27213C53.6431 6.27221 53.6432 6.27229 53.6434 6.27237L53.6007 6.3628M53.6007 6.3628C53.0818 6.11797 52.5933 6.12817 52.0744 6.3628L56.969 14.7486C57.7016 15.024 58.7192 14.7282 59.1771 14.1059C59.8284 13.2387 59.7571 12.2288 59.0143 11.433C57.6813 10.015 53.9569 6.52603 53.6007 6.3628ZM3.33397 41.6132C1.88501 38.6977 0.912021 35.2649 0.901662 32.9491L45.226 29.6328C47.9023 29.694 48.2177 29.7858 49.0521 30.7039L49.1261 30.6366C49.1261 30.6366 49.1261 30.6367 49.1261 30.6367C49.5641 31.1176 49.824 31.5939 49.9242 32.2209C50.0237 32.8425 49.9651 33.606 49.7815 34.659L49.7815 34.659C49.3526 37.106 48.6884 39.1859 47.6361 41.3573L47.6361 41.3573C44.3459 48.1386 37.8585 53.1883 30.5214 54.6738C28.5708 55.0731 27.4854 55.1757 25.4136 55.1757C23.3417 55.1757 22.2563 55.0731 20.3057 54.6738C13.0403 53.1986 6.665 48.2921 3.33403 41.6133L3.33397 41.6132ZM47.2872 31.4563L47.2857 31.4555C47.2427 31.4328 47.2041 31.4143 47.1281 31.3973C47.0487 31.3794 46.9278 31.3631 46.7215 31.3489C46.3092 31.3204 45.5722 31.3013 44.1782 31.2885C41.3919 31.263 35.9918 31.263 25.3424 31.263C16.474 31.2681 11.0608 31.2758 7.83285 31.2962C6.21874 31.3064 5.15178 31.3198 4.47267 31.3376C4.13296 31.3465 3.89143 31.3565 3.72744 31.3677C3.64534 31.3733 3.58401 31.3791 3.54012 31.385C3.51818 31.3879 3.50167 31.3907 3.4897 31.3933C3.47882 31.3957 3.47434 31.3973 3.47389 31.3974L3.47347 31.3976C3.30375 31.4712 3.10403 31.633 2.93504 31.8247C2.76515 32.0174 2.64044 32.2242 2.60519 32.3788L2.60522 32.3788L2.60457 32.3814C2.58253 32.4676 2.57145 32.6078 2.57397 32.7975C2.57646 32.985 2.59207 33.2138 2.61984 33.4732C2.67537 33.992 2.77904 34.6286 2.92091 35.2941C4.90678 44.4968 12.2624 51.5461 21.5535 53.151C26.8819 54.065 32.678 52.9477 37.318 50.114C43.154 46.5386 47.0244 40.7085 48.0986 33.851C48.21 33.1295 48.2114 32.6376 48.0863 32.2744C47.9638 31.919 47.7151 31.6732 47.2872 31.4563ZM2.50769 32.3566C2.5891 31.9996 3.05719 31.4691 3.43369 31.3058L2.50769 32.3566ZM57.7023 13.1995C57.7436 13.1959 57.7835 13.1664 57.8468 13.0499C57.8542 13.0349 57.8564 13.0249 57.8563 13.0149C57.8563 13.0033 57.8531 12.983 57.8368 12.9483C57.8025 12.8755 57.7224 12.7633 57.5565 12.5739C57.2271 12.1983 56.589 11.5507 55.4023 10.3611C54.6903 9.6473 54.032 9.00002 53.5442 8.53136C53.3002 8.29694 53.0993 8.10767 52.956 7.97722C52.8841 7.91187 52.8276 7.86208 52.7877 7.82898C52.7745 7.81809 52.7638 7.80951 52.7553 7.80301C52.7355 7.80951 52.7068 7.82605 52.6672 7.86491C52.6157 7.91554 52.5558 7.99438 52.4845 8.10759C52.4852 8.10888 52.4859 8.11023 52.4867 8.11164C52.502 8.1401 52.5302 8.18225 52.5746 8.24012C52.6626 8.35495 52.8042 8.51905 53.0041 8.73728C53.4033 9.17305 54.0279 9.81701 54.9028 10.6993C56.2134 12.0132 56.9192 12.7051 57.3291 13.012C57.4307 13.0881 57.5102 13.1375 57.5734 13.1667C57.6368 13.196 57.6769 13.2018 57.7023 13.1995ZM47.8999 21.6792C49.8944 19.5113 51.7209 17.5246 53.0577 16.0684C53.7261 15.3402 54.2721 14.7448 54.6554 14.3256C54.847 14.116 54.9979 13.9506 55.1031 13.8347C55.1277 13.8076 55.1498 13.7833 55.1693 13.7617C55.1915 13.7372 55.2103 13.7162 55.2258 13.699L55.2598 13.6608C55.2666 13.6531 55.2701 13.649 55.2714 13.6474C55.2713 13.6436 55.2701 13.6311 55.2587 13.606C55.2346 13.5525 55.1781 13.4698 55.0674 13.3391C54.848 13.0802 54.4417 12.6625 53.7436 11.9627L52.1537 10.3687L42.364 19.6058C42.364 19.6059 42.364 19.6059 42.364 19.6059C36.943 24.7245 32.3256 29.0884 32.0974 29.3068C32.0973 29.3069 32.0972 29.307 32.097 29.3072L31.8662 29.5328H36.1695H40.6742L47.8999 21.6792Z" fill="#B01C1A" stroke="#B01C1A" stroke-width="0.2"/>
<path d="M4.07911 7.47739L4.0797 7.51955L4.13057 11.1512C4.17124 14.3819 4.20148 14.9135 4.39745 15.8029C5.04251 18.7591 6.42539 21.3065 8.50504 23.3811L8.50507 23.3811C10.286 25.1563 12.1206 26.3075 14.3951 27.0675L14.3953 27.0676C16.0033 27.6016 17.3365 27.8173 19.1371 27.8378L19.1372 27.8378C19.283 27.8393 19.4188 27.8424 19.545 27.8452C19.847 27.852 20.0936 27.8576 20.2881 27.8371C20.4286 27.8223 20.5524 27.7933 20.6574 27.7362C20.7647 27.6778 20.8468 27.5932 20.9082 27.4773C21.0261 27.2543 21.068 26.9116 21.0841 26.4054C21.0955 26.0477 21.094 25.5966 21.092 25.0311C21.0912 24.7885 21.0902 24.525 21.0902 24.2387C21.0902 22.5772 21.0395 20.7958 20.9776 20.2887C20.9776 20.2887 20.9776 20.2887 20.9776 20.2887L20.8783 20.3008C20.227 14.9552 16.696 10.3032 11.72 8.24247L4.07911 7.47739ZM4.07911 7.47739L4.10889 7.44753M4.07911 7.47739L4.10889 7.44753M4.10889 7.44753L4.33276 7.2231M4.10889 7.44753L4.33276 7.2231M4.33276 7.2231C4.38867 7.16704 4.44334 7.11411 4.5188 7.07469M4.33276 7.2231L4.5188 7.07469M4.5188 7.07469C4.59489 7.03494 4.68462 7.01251 4.80846 7.00036M4.5188 7.07469L4.80846 7.00036M4.80846 7.00036C5.0512 6.97656 5.45957 6.98992 6.22899 7.02037L4.80846 7.00036ZM14.4268 26.9727C16.0244 27.5032 17.3473 27.7174 19.1382 27.7378L4.23057 11.1499C4.27127 14.3839 4.3018 14.9041 4.49514 15.7815C5.13622 18.7196 6.50996 21.2496 8.57567 23.3103C10.3463 25.0752 12.1677 26.2178 14.4268 26.9727ZM5.98815 14.7059L5.98816 14.7059C6.86689 20.6498 11.6242 25.3179 17.5626 26.0675C18.0201 26.1184 18.6356 26.1688 18.9245 26.1688H19.3639V23.5347C19.3639 21.6946 19.3002 20.4344 19.106 19.3596C18.9121 18.2871 18.5876 17.3955 18.061 16.294C16.2937 12.6087 12.758 9.84396 8.77941 9.02394C8.23432 8.91262 7.32348 8.79091 6.759 8.7606L6.7575 8.7605L5.82642 8.69644V11.1193C5.82642 12.8838 5.87738 13.9588 5.98815 14.7059Z" fill="#B01C1A" stroke="#B01C1A" stroke-width="0.2"/>
<path d="M27.9878 23.6846L28.0865 23.6682C28.0929 23.7069 28.1256 23.7786 28.1859 23.8663C28.2437 23.9503 28.3193 24.0378 28.3986 24.1083C28.5751 24.2521 28.755 24.3087 28.9254 24.2915C29.0968 24.2742 29.2734 24.1808 29.439 23.9961C29.5824 23.8289 29.6441 23.6523 29.6344 23.4811C29.6246 23.3091 29.5419 23.1296 29.3722 22.9595C29.2982 22.8852 29.2043 22.8169 29.1139 22.7674C29.0205 22.7163 28.9449 22.6933 28.9044 22.693C28.3954 22.7027 28.0049 23.1684 28.0865 23.6685L27.9878 23.6846ZM27.9878 23.6846C27.8962 23.1235 28.3338 22.6032 28.9037 22.593L29.5142 24.062C29.1581 24.4599 28.7205 24.5007 28.3338 24.1844C28.1608 24.0314 28.0082 23.807 27.9878 23.6846ZM27.9221 21.1324L27.9226 21.1322C29.2122 20.6553 30.7043 21.2787 31.2244 22.5238L31.2245 22.5238L31.2249 22.525C31.3391 22.8085 31.3801 23.1815 31.3592 23.5575C31.3383 23.9344 31.2548 24.3243 31.1115 24.6437L31.1115 24.6437L31.1108 24.6451C30.218 26.5525 27.3689 26.473 26.5323 24.5197L26.5323 24.5196C26.4029 24.2169 26.346 23.8192 26.3538 23.4351C26.3616 23.0519 26.4342 22.6679 26.576 22.3943C26.8607 21.8343 27.4075 21.3258 27.9221 21.1324Z" fill="#B01C1A" stroke="#B01C1A" stroke-width="0.2"/>
</svg>
