<svg width="118" height="118" viewBox="0 0 118 118" fill="none" xmlns="http://www.w3.org/2000/svg">
<circle cx="59" cy="59" r="59" fill="#F9F5EC"/>
<path d="M85.8906 59.0303C85.8906 57.216 87.368 55.7344 89.177 55.7344C90.9861 55.7344 92.4634 57.216 92.4634 59.0303C92.4634 60.8446 90.9861 62.3262 89.177 62.3262C87.368 62.3262 85.8906 60.8446 85.8906 59.0303Z" fill="#FDC417"/>
<path d="M31.5572 59.0303C31.5572 60.8446 30.0798 62.3262 28.2708 62.3262C26.4617 62.3262 24.9844 60.8446 24.9844 59.0303C24.9844 57.216 26.4617 55.7344 28.2708 55.7344C30.0798 55.7344 31.5572 57.216 31.5572 59.0303Z" fill="#FDC417"/>
<path d="M55.4531 28.4912C55.4531 26.677 56.9305 25.1953 58.7395 25.1953C60.5486 25.1953 62.0259 26.677 62.0259 28.4912C62.0259 30.3055 60.5486 31.7872 58.7395 31.7872C56.9305 31.7872 55.4531 30.3055 55.4531 28.4912Z" fill="#FDC417"/>
<path d="M62.0259 89.5694C62.0259 91.3837 60.5486 92.8653 58.7395 92.8653C56.9305 92.8653 55.4531 91.3837 55.4531 89.5694C55.4531 87.7551 56.9305 86.2734 58.7395 86.2734C60.5486 86.2734 62.0259 87.7551 62.0259 89.5694Z" fill="#FDC417"/>
<path d="M62.0259 59.0303C62.0259 60.8446 60.5486 62.3262 58.7395 62.3262C56.9305 62.3262 55.4531 60.8446 55.4531 59.0303C55.4531 57.216 56.9305 55.7344 58.7395 55.7344C60.5486 55.7344 62.0259 57.216 62.0259 59.0303Z" fill="#FDC417"/>
<path d="M54.3989 54.7682C54.3989 54.7682 54.6401 54.9497 54.7607 54.9497C54.8813 54.9497 54.9718 54.9194 55.0622 54.8287C56.9316 53.2261 59.5848 53.4983 59.615 53.4983H61.424H61.5446H71.7053H89.3735C92.4187 53.4983 94.8911 55.9778 94.8911 59.0318C94.8911 62.0858 92.4187 64.5653 89.3735 64.5653C86.3283 64.5653 83.856 62.0858 83.856 59.0318C83.856 57.913 84.1876 56.8547 84.7906 55.9475C84.9414 55.7359 84.8811 55.4335 84.67 55.2823C84.459 55.1311 84.1575 55.1916 84.0067 55.4032C83.2831 56.4918 82.8911 57.7316 82.8911 59.0318C82.8911 62.6301 85.8158 65.533 89.3735 65.533C92.9313 65.533 95.8559 62.5999 95.8559 59.0318C95.8559 55.4637 92.9313 52.5306 89.3735 52.5306H71.8862C71.8862 52.5306 71.6752 52.5004 71.5847 52.5306H59.6753C59.3436 52.5004 56.5396 52.2887 54.4291 54.103C54.218 54.2844 54.1879 54.5868 54.3688 54.7985" fill="#B01C1A"/>
<path d="M54.8374 51.0444C54.8374 51.0444 54.9881 51.0444 55.0786 50.9839C56.7971 50.0163 60.4453 50.1977 60.5056 50.1977H60.8373H62.6765H89.42C93.4903 50.2884 96.9274 53.1308 97.8018 57.1222C98.3144 59.4203 97.8923 61.7788 96.6259 63.7745C95.3596 65.7703 93.3998 67.131 91.1084 67.645C88.425 68.2498 85.6813 67.5543 83.5406 65.8005C83.1487 65.4679 82.7567 65.0748 82.4251 64.6817C81.5205 63.5931 80.8874 62.3231 80.5859 60.9322C80.2241 59.2691 80.3447 57.5455 80.9175 55.9732V55.8824C81.0381 55.6405 80.9175 55.3382 80.6763 55.2474C80.4351 55.1567 80.1336 55.2474 80.0432 55.5196V55.6103C79.3497 57.3641 79.2291 59.2993 79.6211 61.1438C79.9527 62.686 80.6462 64.0769 81.6713 65.3167C82.0331 65.7702 82.4552 66.1936 82.9075 66.5564C84.6863 68.0683 86.8873 68.8545 89.1486 68.8545C89.8722 68.8545 90.5657 68.7638 91.2893 68.6126C93.8521 68.0381 96.0229 66.5262 97.4099 64.3188C98.8269 62.1115 99.2792 59.4808 98.7063 56.9105C97.7415 52.4958 93.9124 49.3208 89.3898 49.2301H60.4755C60.174 49.2301 56.4956 49.0487 54.5359 50.1372C54.2946 50.2582 54.2042 50.5606 54.355 50.8025C54.4454 50.9537 54.5962 51.0444 54.7771 51.0444" fill="#B01C1A"/>
<path d="M91.8689 93.3478C91.7785 94.1038 91.6579 94.89 91.5373 95.6761C91.477 95.9483 91.6579 96.1902 91.9293 96.2507C91.9293 96.2507 91.9896 96.2507 92.0197 96.2507C92.2609 96.2507 92.4418 96.0995 92.5021 95.8576C92.6529 94.9807 92.8036 94.1038 92.8639 93.2571C93.7081 93.1664 94.5523 93.0454 95.4267 92.8942C95.6981 92.8338 95.879 92.5919 95.8187 92.3197C95.7584 92.0476 95.5172 91.8662 95.2458 91.9266C94.2508 92.1081 93.286 92.2592 92.3514 92.3197C91.3262 92.4104 90.3011 92.4709 89.276 92.4709H89.2157H89.1856C88.2509 92.4709 87.3162 92.4407 86.261 92.35C85.266 92.2592 84.271 92.1383 83.2459 91.9569C82.2509 91.7754 81.2258 91.5335 80.261 91.2916C79.2359 91.0195 78.2409 90.6869 77.3063 90.324C76.2812 89.9309 75.2862 89.4774 74.3214 88.9936C73.4168 88.54 72.5123 88.0259 71.6681 87.5119V85.0021C72.2108 85.365 72.7837 85.7279 73.3565 86.0907C74.5023 86.7559 75.6781 87.3607 76.8842 87.8747C77.9394 88.3283 79.0248 88.7214 80.1103 89.054C81.1354 89.3564 82.1906 89.6285 83.2459 89.8402C84.271 90.0519 85.3263 90.1728 86.3816 90.2938C87.3765 90.3845 88.3112 90.4147 89.2157 90.4147C89.276 90.4147 89.3363 90.4147 89.3966 90.4147C89.4268 90.4147 89.4871 90.4147 89.5172 90.4147C90.5725 90.4147 91.6277 90.3543 92.6529 90.2333C94.7332 90.0216 96.7835 89.5681 98.7734 88.9331C99.0146 88.8424 99.1654 88.5702 99.0749 88.3283C98.9845 88.0864 98.7131 87.9352 98.4719 88.0259C96.5423 88.6307 94.5523 89.054 92.5624 89.2959C91.5674 89.4169 90.5423 89.4774 89.5172 89.4774C89.4569 89.4774 89.4268 89.4774 89.3665 89.4774C89.3062 89.4774 89.276 89.4774 89.2157 89.4774C88.3413 89.4774 87.4368 89.4471 86.472 89.3564C85.4469 89.2657 84.4218 89.1145 83.4268 88.9331C82.4017 88.7214 81.3766 88.4795 80.3816 88.1771C79.3263 87.8445 78.2711 87.4514 77.246 87.0281C76.1002 86.5443 74.9545 85.9395 73.839 85.3045C73.0852 84.8812 72.3616 84.3974 71.6681 83.8833V81.2224C73.0249 82.311 74.442 83.2483 75.9495 84.0648C77.1555 84.6998 78.3917 85.2743 79.658 85.7279C80.7133 86.1209 81.859 86.4536 83.0047 86.6955C84.0901 86.9374 85.1755 87.1188 86.2308 87.2397C87.2258 87.3305 88.2207 87.3909 89.2157 87.3909C89.2459 87.3909 89.276 87.3909 89.3363 87.3909C89.3363 87.3909 89.3665 87.3909 89.3966 87.3909C90.4217 87.3909 91.477 87.3305 92.5323 87.2095C95.7584 86.8164 98.894 85.9093 101.788 84.4579C102.03 84.3369 102.12 84.0345 102 83.7926C101.879 83.5507 101.577 83.46 101.336 83.581C98.5322 84.9719 95.5172 85.879 92.4117 86.2419C91.3865 86.3628 90.3916 86.4233 89.3966 86.4233C89.3966 86.4233 89.3363 86.4233 89.3062 86.4233H89.2459C88.3112 86.4233 87.3162 86.3628 86.3514 86.2721C85.3263 86.1512 84.3012 86 83.2459 85.7581C82.1303 85.5162 81.0449 85.1836 80.0198 84.8207C78.8138 84.3671 77.6078 83.8531 76.4621 83.2181C74.7736 82.311 73.2058 81.2224 71.7284 79.9826V77.1403C73.7184 79.0755 75.9796 80.6781 78.4821 81.8876C79.6881 82.4622 80.9846 82.946 82.3112 83.3391C83.4268 83.6717 84.6027 83.9136 85.7484 84.0648C86.8338 84.216 87.9192 84.3067 89.0047 84.3067C89.0348 84.3067 89.0649 84.3067 89.1253 84.3067C89.1856 84.3067 89.2459 84.3067 89.276 84.3067C90.2107 84.3067 91.1755 84.2462 92.1705 84.1252C96.6629 83.6112 100.944 81.8574 104.562 79.1057C104.773 78.9546 104.804 78.6219 104.653 78.4103C104.502 78.1986 104.17 78.1684 103.959 78.3196C100.492 80.9805 96.3915 82.6436 92.0499 83.1576C91.085 83.2786 90.1504 83.3088 89.276 83.3088C89.2459 83.3088 89.1856 83.3088 89.1554 83.3088C89.1253 83.3088 89.065 83.3088 89.0348 83.3088C87.9795 83.3088 86.9243 83.2181 85.8991 83.0669C84.7836 82.9157 83.6982 82.6738 82.6127 82.3714C81.3464 82.0086 80.1103 81.5248 78.9344 80.9805C76.2208 79.6803 73.8088 77.9265 71.7586 75.7191V72.4534C74.1103 75.5679 77.246 78.0172 80.864 79.5291C82.1303 80.0431 83.457 80.4664 84.7836 80.7386C85.9293 80.9805 87.075 81.1317 88.2509 81.1922C88.6428 81.1922 88.9745 81.1922 89.3062 81.1922C90.0298 81.1922 90.7534 81.1619 91.5071 81.0712C97.6277 80.4664 103.266 77.2612 106.974 72.272C107.125 72.0603 107.095 71.7579 106.884 71.5765C106.673 71.4253 106.371 71.4555 106.19 71.6672C102.663 76.4146 97.2659 79.4988 91.4167 80.0734C90.7232 80.1338 89.9996 80.1641 89.3062 80.1641C89.0047 80.1641 88.673 80.1641 88.3112 80.1641C87.1956 80.1036 86.0801 79.9826 84.9946 79.7407C83.7283 79.4686 82.462 79.0755 81.256 78.5917C77.3666 76.9891 74.1103 74.2677 71.7586 70.7298V66.2244C73.8088 71.2439 77.9696 75.2353 83.0952 77.0193C84.3615 77.4729 85.6881 77.7753 87.0449 77.9265C87.8288 78.0172 88.5826 78.0777 89.3062 78.0777C89.668 78.0777 90.0599 78.0777 90.5122 78.0474C100.462 77.4124 108.241 69.097 108.241 59.0882C108.241 49.0795 100.793 41.1269 91.1453 40.1895C91.3865 39.5243 91.5976 38.8288 91.8086 38.1333C97.4468 38.7986 102.633 41.7921 106.1 46.358C106.19 46.479 106.341 46.5395 106.492 46.5395C106.582 46.5395 106.703 46.5092 106.793 46.4488C107.005 46.2976 107.035 45.9952 106.884 45.7533C103.296 41.0059 97.9292 37.8914 92.08 37.1657C92.2609 36.5005 92.4117 35.805 92.5323 35.1095C96.6327 35.6538 100.522 37.2564 103.839 39.7662C103.929 39.8266 104.02 39.8569 104.14 39.8569C104.291 39.8569 104.442 39.7964 104.532 39.6755C104.683 39.4638 104.653 39.1614 104.442 38.98C101.005 36.3795 96.9644 34.7164 92.7132 34.1419C92.8338 33.4464 92.9242 32.751 92.9845 32.0555C95.879 32.4486 98.6528 33.2952 101.246 34.5652C101.306 34.5955 101.397 34.6257 101.457 34.6257C101.638 34.6257 101.819 34.535 101.879 34.3536C102 34.1117 101.879 33.8093 101.668 33.6883C98.9543 32.3579 96.0599 31.481 93.075 31.0879C93.1353 30.3622 93.1654 29.6365 93.1654 28.9712C94.9443 29.1829 96.6629 29.576 98.3513 30.09C98.4116 30.09 98.4418 30.09 98.5021 30.09C98.7131 30.09 98.894 29.9691 98.9543 29.7574C99.0448 29.5155 98.894 29.2434 98.6227 29.1526C96.8739 28.6084 95.0348 28.2153 93.1654 27.9734C93.1654 27.2779 93.1353 26.5522 93.075 25.8265C93.7383 25.9172 94.4317 26.0079 95.1553 26.1288C95.1553 26.1288 95.2157 26.1288 95.2458 26.1288C95.487 26.1288 95.6679 25.9777 95.7282 25.7358C95.7885 25.4636 95.6076 25.2217 95.3363 25.1612C94.5222 25.01 93.7684 24.9193 93.0147 24.8286C92.9242 24.0727 92.8338 23.3167 92.683 22.5003C92.6227 22.2282 92.3815 22.0467 92.1102 22.1072C91.8388 22.1677 91.6579 22.4096 91.7182 22.6817C91.8689 23.6191 91.9896 24.4658 92.08 25.3124C92.1705 26.3405 92.2308 27.3686 92.2308 28.3967V28.4572C92.2308 29.4248 92.2006 30.3924 92.08 31.4205C91.9896 32.4183 91.8689 33.4162 91.688 34.4443C91.5071 35.4421 91.2659 36.4702 91.0247 37.4378C90.7534 38.4659 90.4217 39.4638 90.0599 40.4012C89.668 41.4293 89.2459 42.4271 88.7333 43.3947C88.281 44.3019 87.7685 45.209 87.2559 46.0557H84.7534C85.1152 45.5114 85.4771 44.9369 85.8389 44.3623C86.5022 43.2133 87.1052 42.034 87.6177 40.8245C88.07 39.7662 88.4619 38.6776 88.7936 37.589C89.0951 36.5609 89.3665 35.5026 89.5775 34.4443C89.7886 33.4162 89.9092 32.3579 90.0298 31.2995C90.1202 30.3017 90.1504 29.3643 90.1504 28.4572C90.1504 28.3967 90.1504 28.3362 90.1504 28.2757C90.1504 28.2455 90.1504 28.185 90.1504 28.1548C90.1504 27.0965 90.0901 26.0381 89.9695 25.01C89.7584 23.0143 89.3363 21.0186 88.7635 19.1439C88.673 18.902 88.4016 18.7508 88.1604 18.8113C87.8891 18.902 87.7685 19.1741 87.8288 19.416C88.4016 21.2605 88.7936 23.1655 89.0047 25.1008C89.1253 26.0986 89.1856 27.1267 89.1856 28.1548C89.1856 28.2153 89.1856 28.2455 89.1856 28.306C89.1856 28.3665 89.1856 28.3967 89.1856 28.4572C89.1856 29.3341 89.1554 30.2412 89.065 31.2088C88.9745 32.2369 88.8237 33.265 88.6428 34.2629C88.4318 35.2909 88.1906 36.3493 87.8891 37.3169C87.5574 38.3752 87.1655 39.4335 86.7434 40.4616C86.261 41.6107 85.658 42.7597 85.0248 43.8785C84.6027 44.6345 84.1203 45.3602 83.6077 46.0557H80.9545C82.0399 44.695 82.9746 43.2738 83.7886 41.7619C84.4218 40.5524 84.9946 39.3126 85.4469 38.0426C85.8389 36.9843 86.1705 35.8352 86.4117 34.6862C86.6529 33.5976 86.8338 32.5091 86.9544 31.4507C87.075 30.4529 87.1052 29.455 87.1052 28.4572C87.1052 28.4269 87.1052 28.3967 87.1052 28.3362C87.1052 28.3362 87.1052 28.306 87.1052 28.2757C87.1052 27.2477 87.0449 26.1893 86.9243 25.131C86.5625 21.9862 85.6881 18.9322 84.3012 16.0898C84.1806 15.8479 83.9092 15.7572 83.668 15.8782C83.4268 15.9991 83.3364 16.3015 83.457 16.5434C84.7836 19.2648 85.6278 22.1979 85.9896 25.2519C86.1102 26.28 86.1705 27.2779 86.1705 28.2757C86.1705 28.2757 86.1705 28.3362 86.1705 28.3665V28.4269C86.1705 29.3643 86.1102 30.3622 86.0198 31.3298C85.8992 32.3579 85.7484 33.386 85.5072 34.4443C85.266 35.5631 84.9343 36.6517 84.5725 37.6797C84.1203 38.8893 83.6077 40.0988 82.9746 41.2478C82.07 42.9412 80.9846 44.5135 79.7485 45.9952H76.9143C78.8439 43.9995 80.4419 41.7316 81.6479 39.2219C82.2208 38.0124 82.7032 36.7121 83.0952 35.3817C83.4268 34.2629 83.668 33.0836 83.8188 31.9345C83.9695 30.846 84.06 29.7574 84.06 28.6688C84.06 28.6386 84.06 28.6084 84.06 28.5479C84.06 28.4874 84.06 28.4269 84.06 28.3967C84.06 27.4593 83.9997 26.4917 83.8791 25.4939C83.3665 21.0791 81.7082 16.876 79.055 13.3382C78.9042 13.1265 78.6027 13.0661 78.3615 13.2475C78.1505 13.3987 78.0902 13.7011 78.2711 13.943C80.8037 17.3598 82.4318 21.4117 82.9143 25.645C83.0349 26.5824 83.065 27.5198 83.065 28.4269C83.065 28.4572 83.065 28.5176 83.065 28.5479C83.065 28.5781 83.065 28.6386 83.065 28.6688C83.065 29.7272 82.9746 30.7855 82.8238 31.8136C82.673 32.9324 82.4318 34.021 82.1303 35.1095C81.7685 36.3795 81.2861 37.6193 80.7434 38.7986C79.4469 41.52 77.6982 43.939 75.4972 45.9952H72.241C75.3465 43.6366 77.7887 40.4919 79.2962 36.8633C79.8088 35.5933 80.2309 34.2629 80.5022 32.9324C80.7434 31.7833 80.8942 30.6343 80.9545 29.455C80.9545 29.0619 80.9545 28.7293 80.9545 28.3967C80.9545 27.671 80.9243 26.9453 80.8339 26.1893C80.2309 20.172 77.1555 14.6082 72.3616 10.8889C72.1505 10.7377 71.849 10.768 71.6681 10.9796C71.5174 11.1913 71.5475 11.4937 71.7586 11.6751C76.3414 15.2129 79.2962 20.5348 79.869 26.28C79.9294 26.9755 79.9595 27.7012 79.9595 28.3967C79.9595 28.6991 79.9595 29.0317 79.9595 29.3945C79.8992 30.5134 79.7786 31.6322 79.5374 32.7207C79.266 33.9907 78.8741 35.2607 78.3917 36.4702C76.7937 40.3709 74.0802 43.6366 70.5525 45.9952H66.0601C71.0651 43.939 75.045 39.7662 76.8239 34.6257C77.2761 33.3557 77.5776 32.0252 77.7284 30.6645C77.8188 29.8784 77.8791 29.1224 77.8791 28.3967C77.8791 28.0338 77.8791 27.6407 77.849 27.2174C77.2158 17.2389 68.9244 9.4375 58.9446 9.4375C48.9648 9.4375 41.0352 16.9063 40.1006 26.5824C39.4372 26.3405 38.7438 26.1288 38.0503 25.9172C38.7136 20.3232 41.6382 15.1525 46.1005 11.7053C46.3116 11.5542 46.3417 11.2215 46.191 11.0099C46.0402 10.7982 45.7085 10.768 45.4975 10.9192C40.8543 14.5175 37.8091 19.8394 37.0855 25.645C36.4222 25.4636 35.7287 25.3124 35.0353 25.1915C35.578 21.1093 37.1458 17.2389 39.6181 13.943C39.7689 13.7313 39.7387 13.4289 39.5277 13.2475C39.3166 13.0963 39.0151 13.1265 38.8342 13.3382C36.3016 16.7551 34.6433 20.7767 34.0705 25.01C33.377 24.8891 32.6835 24.7984 31.9901 24.7379C32.382 21.8653 33.1961 19.1136 34.4624 16.5132C34.583 16.2713 34.4624 15.9689 34.2514 15.8479C34.0102 15.727 33.7086 15.8479 33.6182 16.0596C32.3217 18.7508 31.4474 21.6234 31.0554 24.617C30.3016 24.5565 29.6082 24.5262 28.9449 24.5262C29.1559 22.7724 29.5479 21.0489 30.0604 19.3858C30.1509 19.1439 30.0001 18.8717 29.7288 18.781C29.4876 18.6903 29.2162 18.8415 29.1258 19.1136C28.5831 20.8674 28.1911 22.712 27.9801 24.5565C27.2866 24.5565 26.563 24.5867 25.8394 24.6472C25.8997 23.982 26.0203 23.3167 26.1409 22.591C26.2012 22.3189 26.0203 22.077 25.7489 22.0165C25.4776 21.956 25.2364 22.1374 25.1761 22.4096C25.0253 23.226 24.9349 23.982 24.8444 24.7379C24.0906 24.8286 23.3369 24.9193 22.5228 25.0705C22.2515 25.131 22.0706 25.3729 22.1309 25.645C22.161 25.8869 22.3721 26.0381 22.6133 26.0381C22.6133 26.0381 22.6736 26.0381 22.7037 26.0381C23.6384 25.8869 24.4826 25.766 25.357 25.6753C26.3821 25.5846 27.4072 25.5241 28.4323 25.5241H28.4926H28.5228C29.4574 25.5241 30.3921 25.5543 31.4474 25.645C32.4423 25.7358 33.4373 25.8567 34.4624 26.0381C35.4574 26.2196 36.4825 26.4615 37.4473 26.7034C38.4724 26.9755 39.4674 27.3081 40.4021 27.671C41.4272 28.0641 42.4221 28.5176 43.387 29.0015C44.2915 29.455 45.196 29.9691 46.0402 30.4831V32.9929C45.4975 32.63 44.9246 32.2672 44.3518 31.9043C43.2061 31.2391 42.0302 30.6343 40.8242 30.1203C39.7689 29.6667 38.6835 29.2736 37.5981 28.941C36.5729 28.6386 35.5177 28.3665 34.4624 28.1548C33.4373 27.9431 32.382 27.8222 31.3268 27.7012C30.3318 27.6105 29.3971 27.5803 28.4926 27.5803C28.4323 27.5803 28.372 27.5803 28.3117 27.5803C28.2816 27.5803 28.2213 27.5803 28.1911 27.5803C27.1358 27.5803 26.0806 27.6407 25.0555 27.7617C23.0354 27.9734 21.0756 28.3967 19.1761 29.0015C18.9349 29.0922 18.7842 29.3643 18.8445 29.6062C18.9048 29.8179 19.1158 29.9388 19.2967 29.9388C19.357 29.9388 19.3872 29.9388 19.4475 29.9388C21.2866 29.3643 23.2163 28.9712 25.1459 28.7596C26.1409 28.6386 27.166 28.5781 28.1911 28.5781C28.2514 28.5781 28.2816 28.5781 28.3419 28.5781C28.4022 28.5781 28.4323 28.5781 28.4926 28.5781C29.367 28.5781 30.2715 28.6084 31.2363 28.6991C32.2614 28.7898 33.2865 28.941 34.2815 29.1224C35.3066 29.3341 36.3619 29.576 37.3267 29.8784C38.382 30.211 39.4372 30.5738 40.4624 31.0274C41.6081 31.5112 42.7538 32.116 43.8694 32.751C44.6231 33.2045 45.3467 33.6581 46.0402 34.1721V36.8331C44.6834 35.7445 43.2664 34.8071 41.7588 33.9907C40.5528 33.3557 39.3166 32.7812 38.0503 32.3276C36.9951 31.9345 35.8493 31.6019 34.7036 31.36C33.6182 31.1181 32.5328 30.9367 31.4775 30.8157C30.4825 30.6948 29.4876 30.6645 28.4926 30.6645C28.4625 30.6645 28.4323 30.6645 28.372 30.6645C28.372 30.6645 28.3419 30.6645 28.3117 30.6645C27.2866 30.6645 26.2313 30.725 25.1761 30.846C22.0103 31.2088 18.9651 32.116 16.1008 33.5069C15.8596 33.6279 15.7691 33.9302 15.8897 34.1721C15.9802 34.3536 16.1611 34.4443 16.3118 34.4443C16.3721 34.4443 16.4626 34.4443 16.5229 34.3838C19.2666 33.0231 22.2213 32.1764 25.2665 31.8136C26.2916 31.6926 27.2866 31.6322 28.2816 31.6322C28.2816 31.6322 28.3419 31.6322 28.372 31.6322H28.4323C29.367 31.6322 30.3619 31.6926 31.3268 31.7833C32.3519 31.9043 33.377 32.0555 34.4323 32.2974C35.5478 32.5393 36.6332 32.8719 37.6584 33.2348C38.8644 33.6883 40.0704 34.2024 41.2161 34.8374C42.9045 35.7445 44.4724 36.8331 45.9497 38.0728V40.9152C43.9598 38.9497 41.6985 37.3774 39.196 36.1678C37.99 35.5933 36.6935 35.1095 35.3669 34.7164C34.2514 34.3838 33.0755 34.1419 31.9298 33.9907C30.8443 33.8395 29.7589 33.7488 28.6735 33.7488C28.6434 33.7488 28.6132 33.7488 28.5529 33.7488C28.4926 33.7488 28.4323 33.7488 28.4022 33.7488C27.4675 33.7488 26.5027 33.8093 25.5077 33.9302C21.0756 34.4443 16.8545 36.1376 13.2666 38.8288C13.0556 38.98 12.9953 39.2824 13.1762 39.5243C13.2666 39.6452 13.4174 39.7057 13.5681 39.7057C13.6586 39.7057 13.7792 39.6755 13.8696 39.615C17.3068 37.0145 21.3469 35.3817 25.6283 34.8979C26.5931 34.7769 27.5278 34.7467 28.4022 34.7467C28.4323 34.7467 28.4926 34.7467 28.5228 34.7467C28.5529 34.7467 28.6132 34.7467 28.6434 34.7467C29.6986 34.7467 30.7539 34.8374 31.779 34.9886C32.8946 35.1398 33.98 35.3817 35.0654 35.684C36.3317 36.0469 37.5679 36.5307 38.7438 37.075C41.4573 38.3752 43.8694 40.129 45.9196 42.3364V45.6021C43.5679 42.4876 40.4322 40.0383 36.8141 38.5264C35.5478 38.0124 34.2212 37.589 32.8946 37.3169C31.7489 37.075 30.6031 36.9238 29.4273 36.8633C29.0353 36.8633 28.7037 36.8633 28.372 36.8633C27.6484 36.8633 26.9248 36.8936 26.171 36.9843C20.1108 37.589 14.5028 40.7338 10.7943 45.6323C10.6435 45.844 10.6737 46.1464 10.8847 46.3278C10.9752 46.3883 11.0656 46.4185 11.1862 46.4185C11.337 46.4185 11.4877 46.358 11.5782 46.2371C15.1058 41.5502 20.4726 38.5264 26.2615 37.9519C26.9549 37.8914 27.6785 37.8612 28.372 37.8612C28.6735 37.8612 29.0052 37.8612 29.367 37.8612C30.4825 37.9217 31.5981 38.0426 32.6835 38.2845C33.9499 38.5567 35.2162 38.9497 36.4222 39.4335C40.3116 41.0362 43.5679 43.7576 45.9196 47.2954V51.8009C43.8694 46.7814 39.7086 42.79 34.583 41.0059C33.3167 40.5524 31.9901 40.25 30.6333 40.0988C29.8494 40.0081 29.0956 39.9476 28.372 39.9476C28.0102 39.9476 27.6182 39.9476 27.166 39.9778C17.2163 40.6128 9.4375 48.9283 9.4375 58.937C9.4375 68.9458 16.8847 76.8984 26.5328 77.8357C26.2916 78.501 26.0806 79.1965 25.8695 79.8919C20.1711 79.2267 14.955 76.1727 11.4877 71.5463C11.337 71.3346 11.0355 71.2741 10.7943 71.4555C10.5832 71.6067 10.5229 71.9091 10.7038 72.151C14.2917 76.9588 19.6887 80.1338 25.5982 80.8595C25.4173 81.5248 25.2665 82.2203 25.1459 82.9157C20.9851 82.3714 17.0354 80.7084 13.6887 78.1381C13.4777 77.9869 13.1762 78.0172 12.9953 78.2288C12.8445 78.4405 12.8747 78.7429 13.0857 78.9243C16.553 81.5853 20.6535 83.3088 24.965 83.8833C24.8444 84.5788 24.754 85.2743 24.6937 85.9698C21.7389 85.5767 18.9048 84.6998 16.2515 83.3693C16.0103 83.2483 15.7088 83.3693 15.5882 83.581C15.4676 83.8229 15.5882 84.1252 15.7993 84.2462C18.5731 85.6371 21.5278 86.5443 24.6032 86.9374C24.5429 87.6631 24.5127 88.3888 24.5127 89.054C22.6736 88.8121 20.8645 88.419 19.1158 87.8747C18.8746 87.784 18.5731 87.9352 18.5128 88.1771C18.4223 88.419 18.5731 88.7214 18.8143 88.7819C20.6535 89.3866 22.5831 89.7797 24.4826 90.0216C24.4826 90.7171 24.5127 91.4428 24.573 92.1685C23.8193 92.0778 23.0655 91.9569 22.2816 91.8359C22.0103 91.7754 21.7691 91.9569 21.7088 92.229C21.6484 92.5012 21.8294 92.7431 22.1007 92.8035C22.9751 92.9547 23.8494 93.0757 24.6635 93.1664C24.754 94.0131 24.8746 94.89 25.0253 95.7669C25.0555 96.0088 25.2665 96.1599 25.5077 96.1599C25.5077 96.1599 25.568 96.1599 25.5982 96.1599C25.8695 96.0995 26.0504 95.8576 25.9901 95.5854C25.8092 94.5876 25.6585 93.62 25.5982 92.6826C25.5077 91.6545 25.4474 90.6264 25.4474 89.5983V89.5378C25.4474 88.5702 25.4776 87.6026 25.5982 86.5745C25.6886 85.5767 25.8092 84.5788 25.9901 83.5507C26.171 82.5529 26.4122 81.5248 26.6534 80.5572C26.9248 79.5291 27.2564 78.5312 27.6182 77.5938C28.0102 76.5658 28.4625 75.5679 28.9449 74.6003C29.3971 73.6932 29.9097 72.786 30.4222 71.9393H32.9247C32.5629 72.4836 32.2011 73.0581 31.8393 73.6327C31.176 74.7817 30.573 75.961 30.0604 77.1705C29.6082 78.2288 29.2162 79.3174 28.8846 80.406C28.5831 81.4341 28.3117 82.4924 28.1007 83.5507C27.8896 84.5788 27.769 85.6371 27.6484 86.6955C27.5579 87.6933 27.5278 88.6307 27.5278 89.5378C27.5278 89.5983 27.5278 89.6588 27.5278 89.7193C27.5278 89.7495 27.5278 89.81 27.5278 89.8402C27.5278 90.8985 27.5881 91.9569 27.7087 92.985C27.9499 95.0714 28.372 97.1578 29.0052 99.1535C29.0655 99.3652 29.2765 99.4861 29.4574 99.4861C29.5177 99.4861 29.5479 99.4861 29.6082 99.4861C29.8494 99.3954 30.0001 99.1233 29.9097 98.8814C29.2765 96.9461 28.8544 94.9202 28.6434 92.8942C28.5228 91.8964 28.4625 90.8683 28.4625 89.8402C28.4625 89.8402 28.4625 89.7495 28.4625 89.689C28.4625 89.6285 28.4625 89.5983 28.4625 89.5378C28.4625 88.6609 28.4926 87.7538 28.5831 86.7862C28.6735 85.7581 28.8243 84.73 29.0052 83.7321C29.2162 82.7041 29.4574 81.6457 29.7589 80.6781C30.0906 79.6198 30.4825 78.5615 30.9047 77.5334C31.3871 76.3843 31.9901 75.2353 32.6232 74.1165C33.0755 73.3605 33.5277 72.6348 34.0403 71.9393H36.6935C35.6081 73.3001 34.6735 74.7212 33.8594 76.2331C33.2262 77.4426 32.6835 78.6824 32.2011 79.9524C31.8092 81.0107 31.4775 82.1598 31.2363 83.3088C30.9951 84.3974 30.8142 85.4859 30.6936 86.5443C30.573 87.5421 30.5428 88.54 30.5428 89.5378C30.5428 89.5681 30.5428 89.5983 30.5428 89.6588C30.5428 89.6588 30.5428 89.689 30.5428 89.7193C30.5428 90.7474 30.6031 91.8057 30.7237 92.864C31.1157 96.1297 32.0504 99.2745 33.5277 102.208C33.6182 102.389 33.7689 102.48 33.9499 102.48C34.0102 102.48 34.1006 102.48 34.1609 102.419C34.4021 102.298 34.4926 101.996 34.372 101.754C32.9549 98.9116 32.0504 95.8878 31.6886 92.7128C31.568 91.6847 31.5077 90.6869 31.5077 89.689C31.5077 89.6588 31.5077 89.6285 31.5077 89.5983V89.5378C31.5077 88.6005 31.568 87.6026 31.6584 86.635C31.779 85.6069 31.9298 84.5788 32.171 83.5205C32.4122 82.4017 32.7438 81.3131 33.1056 80.285C33.5579 79.0755 34.0705 77.866 34.7036 76.6867C35.6081 74.9934 36.6935 73.421 37.9297 71.9393H40.7639C38.8342 73.9351 37.2363 76.2029 36.0302 78.7126C35.4574 79.9222 34.975 81.2224 34.583 82.5529C34.2514 83.6717 34.0102 84.851 33.8594 86C33.7086 87.0886 33.6182 88.1771 33.6182 89.2657C33.6182 89.2959 33.6182 89.3262 33.6182 89.3866C33.6182 89.4471 33.6182 89.5076 33.6182 89.5378C33.6182 90.4752 33.6785 91.4428 33.7991 92.4407C34.3117 97.0066 36.0905 101.331 38.8945 104.959C38.985 105.08 39.1357 105.141 39.2865 105.141C39.3769 105.141 39.4975 105.11 39.588 105.05C39.799 104.899 39.8292 104.566 39.6784 104.354C36.9649 100.877 35.2765 96.7042 34.7941 92.3197C34.6735 91.3521 34.6433 90.445 34.6433 89.5378C34.6433 89.5076 34.6433 89.4471 34.6433 89.4169C34.6433 89.3866 34.6433 89.3262 34.6433 89.2959C34.6433 88.2376 34.7338 87.1793 34.8845 86.1512C35.0353 85.0324 35.2765 83.9438 35.578 82.8552C35.9398 81.5853 36.4222 80.3455 36.9649 79.1662C38.2614 76.4448 40.0101 74.0258 42.2111 71.9696H45.4673C42.3618 74.3281 39.9197 77.4729 38.4121 81.1014C37.8996 82.3714 37.4775 83.7019 37.2061 85.0324C36.9649 86.1814 36.8141 87.3305 36.7538 88.5097C36.7538 88.9028 36.7538 89.2355 36.7538 89.5681C36.7538 90.2938 36.784 91.0195 36.8745 91.7754C37.4775 98.0045 40.7639 103.719 45.8291 107.408C45.9196 107.469 46.01 107.499 46.1005 107.499C46.2513 107.499 46.402 107.439 46.4925 107.288C46.6432 107.076 46.6131 106.773 46.3719 106.622C41.5176 103.084 38.4121 97.6416 37.8091 91.6847C37.7488 90.9893 37.7187 90.2635 37.7187 89.5681C37.7187 89.2657 37.7187 88.9331 37.7187 88.5702C37.779 87.4514 37.8996 86.3326 38.1408 85.244C38.4121 83.9741 38.8041 82.7041 39.2865 81.4945C40.8845 77.5938 43.598 74.3281 47.1256 71.9696H51.618C46.6131 74.0258 42.6332 78.1986 40.8543 83.3391C40.4021 84.609 40.1006 85.9395 39.9498 87.3002C39.8593 88.0864 39.799 88.8424 39.799 89.5681C39.799 89.9309 39.799 90.324 39.8292 90.7776C40.4624 100.756 48.7537 108.558 58.7336 108.558C68.7134 108.558 76.6429 101.089 77.5776 91.4126C78.2409 91.6545 78.9344 91.8662 79.6278 92.0778C78.9344 97.8835 75.859 103.175 71.1254 106.622C70.9144 106.773 70.8541 107.076 71.0048 107.288C71.0953 107.408 71.246 107.499 71.3968 107.499C71.4872 107.499 71.6078 107.499 71.6681 107.408C76.5826 103.81 79.8088 98.3371 80.5625 92.3197C81.2258 92.5012 81.9193 92.6523 82.6127 92.7733C82.0399 96.9764 80.3816 100.968 77.7887 104.354C77.6379 104.566 77.6681 104.868 77.8791 105.05C77.9696 105.11 78.06 105.141 78.1806 105.141C78.3314 105.141 78.4821 105.08 78.5726 104.959C81.2861 101.452 83.0047 97.309 83.6077 92.9547C84.3012 93.0757 84.9946 93.1664 85.6881 93.2269C85.2961 96.2204 84.3916 99.0628 83.065 101.754C82.9444 101.996 83.065 102.298 83.2761 102.419C83.3364 102.449 83.4268 102.48 83.4871 102.48C83.668 102.48 83.8489 102.389 83.9092 102.208C85.2961 99.4256 86.2308 96.4321 86.6529 93.3176C87.4067 93.3781 88.1001 93.4083 88.7635 93.4083C88.5222 95.2528 88.1303 97.0671 87.5574 98.8511C87.467 99.093 87.6177 99.3954 87.8589 99.4559C87.9192 99.4559 87.9494 99.4559 88.0097 99.4559C88.2207 99.4559 88.4016 99.3349 88.4619 99.1233C89.065 97.2485 89.4871 95.3435 89.7283 93.3781C90.4217 93.3781 91.1453 93.3478 91.8689 93.2873M58.7336 107.529C49.2663 107.529 41.397 100.121 40.794 90.6566C40.794 90.2333 40.7639 89.8704 40.7639 89.5076C40.7639 88.8121 40.794 88.1167 40.8845 87.3607C41.0352 86.0907 41.3367 84.8207 41.7287 83.6112C43.5076 78.4405 47.6683 74.2677 52.8241 72.4836C53.4874 72.272 54.1507 72.0603 54.814 71.9091H58.7939C58.7939 71.9091 61.3265 71.7882 62.8943 71.2439C63.1355 71.1532 63.2863 70.881 63.1958 70.6391C63.1054 70.3972 62.834 70.246 62.5928 70.3367C61.2059 70.8205 58.9446 70.9415 58.7637 70.9717H28.1007C22.553 70.881 17.8193 67.0106 16.6133 61.5677C15.9199 58.4532 16.4927 55.248 18.2113 52.5266C19.9299 49.8354 22.5831 47.9607 25.7188 47.2652C27.1961 46.9326 28.6735 46.9023 30.1509 47.114C32.171 47.4466 34.1006 48.263 35.6986 49.5633C36.4523 50.1378 37.1157 50.8333 37.6885 51.559C38.8041 52.9802 39.5578 54.613 39.9498 56.3668C40.0101 56.6087 40.0403 56.8506 40.1006 57.0925C40.2815 58.3323 40.2815 59.572 40.1006 60.7815C40.0403 61.2351 39.9197 61.7189 39.799 62.1725C39.7387 62.4446 39.8895 62.6865 40.1307 62.7772C40.1609 62.7772 40.2212 62.7772 40.2513 62.7772C40.4624 62.7772 40.6433 62.6261 40.7036 62.4144C40.8242 61.9306 40.9448 61.4165 41.0352 60.9327C41.2463 59.6023 41.2463 58.2718 41.0352 56.9413C41.0051 56.6692 40.9448 56.397 40.8845 56.1551C40.4624 54.2199 39.6181 52.4661 38.4121 50.9542C37.779 50.168 37.0554 49.4423 36.2714 48.8073C34.5227 47.4164 32.4423 46.5092 30.2715 46.1766C28.6735 45.9347 27.0454 45.9649 25.4776 46.3278C22.1007 47.0838 19.2364 49.1097 17.3671 52.0125C15.4977 54.9456 14.8947 58.3927 15.6485 61.7794C16.945 67.6758 22.0404 71.8486 28.0705 71.9393H29.2162C28.8243 72.5743 28.4625 73.2396 28.1308 73.9048C19.9902 73.8443 13.3571 67.1618 13.3571 58.9673C13.3571 50.7728 20.0203 44.0297 28.2514 44.0297C28.2514 44.0297 28.3117 44.0297 28.3419 44.0297C28.372 44.0297 28.4022 44.0297 28.4323 44.0297C29.6685 44.0297 30.9047 44.2111 32.0805 44.5135C37.2363 45.8742 41.2764 49.9261 42.6332 55.0968C42.9347 56.2761 43.1156 57.5158 43.1156 58.7556C43.1156 58.7858 43.1156 58.8161 43.1156 58.8463C43.1156 58.8463 43.1156 58.9068 43.1156 58.937C43.1156 58.9673 43.1156 58.9975 43.1156 59.0277C43.1156 59.058 43.1156 59.0882 43.1156 59.1185C43.1156 60.3582 42.9347 61.598 42.6332 62.7772C42.5729 63.0494 42.7236 63.2913 42.9649 63.382C42.995 63.382 43.0553 63.382 43.0855 63.382C43.2965 63.382 43.5076 63.2308 43.5679 63.0192C43.8995 61.7492 44.0804 60.4489 44.0804 59.1185V59.058C44.0804 59.058 44.0804 58.9975 44.0804 58.937C44.0804 58.8766 44.0804 58.8765 44.0804 58.8161V58.7556C44.0804 57.4251 43.8995 56.1249 43.5377 54.8549C42.0905 49.3516 37.779 45.0276 32.2916 43.5761C31.0253 43.2435 29.7288 43.0621 28.4022 43.0621H28.3419C28.3419 43.0621 28.2816 43.0621 28.2213 43.0621C19.4776 43.0621 12.3621 50.1983 12.3621 58.9673C12.3621 67.7363 19.146 74.5398 27.6182 74.8422C27.2866 75.5074 27.0152 76.2029 26.7439 76.8984C17.4877 76.1424 10.2516 68.341 10.2516 58.937C10.2516 49.533 17.6384 41.5502 27.0755 40.9454C27.4976 40.9454 27.8595 40.9152 28.2213 40.9152C28.9147 40.9152 29.6383 40.9454 30.3619 41.0362C31.6283 41.1874 32.8946 41.4897 34.1006 41.8828C39.2563 43.6669 43.4171 47.8397 45.196 53.0104C45.407 53.6756 45.6181 54.3409 45.7688 55.0061V58.2416C45.7688 58.4532 45.6784 60.6304 46.402 62.9587C46.4623 63.1703 46.6734 63.2913 46.8543 63.2913C46.9146 63.2913 46.9447 63.2913 47.005 63.2913C47.2462 63.2006 47.397 62.9284 47.3367 62.6865C46.6432 60.4792 46.7638 58.3323 46.7638 58.302V56.5785V54.9456V47.114V28.185C46.8543 22.6212 50.7135 17.8739 56.1406 16.6644C62.5627 15.2432 68.9546 19.3253 70.4018 25.766C70.7335 27.2477 70.7636 28.7293 70.5525 30.211C70.251 32.2369 69.4068 34.1419 68.1405 35.7748C67.447 36.4098 66.7536 37.1052 66.1204 37.8007C64.7034 38.9195 63.1054 39.6755 61.3265 40.0685C61.0853 40.129 60.8441 40.1593 60.6029 40.2197C59.3667 40.4012 58.1306 40.4012 56.9245 40.2197C56.4723 40.1593 55.9899 40.0383 55.5376 39.9174C55.2663 39.8569 55.025 40.0081 54.9346 40.25C54.8743 40.5221 55.025 40.764 55.2663 40.8547C55.7487 40.9757 56.2612 41.0966 56.7436 41.1873C57.4069 41.2781 58.0702 41.3385 58.7336 41.3385C59.3969 41.3385 60.0602 41.2781 60.7536 41.1873C61.025 41.1571 61.2963 41.0966 61.5376 41.0362C63.437 40.6128 65.1858 39.7964 66.7234 38.5869C67.5074 37.9519 68.231 37.2262 68.8641 36.44C70.2209 34.6862 71.1254 32.63 71.4872 30.4226C71.7284 28.82 71.6983 27.2174 71.3365 25.6148C69.7988 18.6298 62.8943 14.2151 55.9296 15.7572C50.0502 17.0575 45.8895 22.1677 45.799 28.2153V29.3643C45.1658 28.9712 44.5025 28.6084 43.8392 28.2757C43.8995 20.1115 50.5628 13.4591 58.7336 13.4591C66.9043 13.4591 73.6279 20.1417 73.6279 28.3967C73.6279 28.3967 73.6279 28.4572 73.6279 28.4874C73.6279 28.4874 73.6279 28.5479 73.6279 28.5781C73.6279 29.8179 73.447 31.0576 73.1455 32.2369C71.7887 37.4076 67.7184 41.4595 62.5928 42.8202C61.417 43.1226 60.1808 43.304 58.9446 43.304H58.613C57.3768 43.304 56.1406 43.1226 54.9647 42.8202C54.6934 42.7597 54.4522 42.9109 54.3617 43.1528C54.3014 43.425 54.4522 43.6669 54.6934 43.7576C55.9597 44.0902 57.2562 44.2716 58.5828 44.2716H58.9446C60.2712 44.2716 61.5677 44.0902 62.834 43.7576C68.3214 42.3062 72.6329 37.9821 74.0802 32.4788C74.4118 31.2088 74.5927 29.9086 74.5927 28.5781V28.5176C74.5927 28.5176 74.5927 28.4269 74.5927 28.3967C74.5927 19.6277 67.4772 12.4915 58.7336 12.4915C49.9899 12.4915 43.2061 19.2951 42.9045 27.7919C42.2412 27.4593 41.5478 27.1872 40.8543 26.915C41.6081 17.632 49.3869 10.3749 58.7637 10.3749C68.1405 10.3749 76.1002 17.7832 76.7033 27.2477C76.7033 27.671 76.7334 28.0338 76.7334 28.3967C76.7334 29.0922 76.7032 29.8179 76.6128 30.5436C76.462 31.8136 76.1605 33.0836 75.7686 34.2931C73.9897 39.4638 69.8289 43.6366 64.6732 45.4207C64.0099 45.6323 63.3466 45.844 62.6833 45.9952H60.4521C60.1506 45.9952 57.015 45.7533 54.6632 46.6302C54.422 46.7209 54.2713 46.993 54.3617 47.2652C54.422 47.4768 54.6331 47.5978 54.814 47.5978C54.8743 47.5978 54.9346 47.5978 54.9949 47.5978C57.226 46.7814 60.3617 47.0233 60.3918 47.0233H61.1154H62.7436H89.4569C95.0046 47.114 99.7382 50.9844 100.944 56.4273C102.361 62.868 98.291 69.2784 91.8689 70.7298C90.3916 71.0624 88.9142 71.0927 87.4368 70.881C85.4167 70.5484 83.4871 69.732 81.8891 68.4317C81.1354 67.8572 80.4721 67.1618 79.8992 66.436C78.7836 65.0149 78.0299 63.382 77.6379 61.6282C77.5776 61.3863 77.5475 61.1444 77.4872 60.9025C77.3063 59.6627 77.3063 58.423 77.4872 57.2135C77.5475 56.7599 77.6681 56.2761 77.7887 55.8225C77.849 55.5504 77.6982 55.3085 77.457 55.2178C77.1857 55.1573 76.9445 55.3085 76.854 55.5504C76.7334 56.0342 76.6128 56.5482 76.5224 57.032C76.3113 58.3625 76.3113 59.693 76.5224 61.0234C76.5525 61.2956 76.6128 61.5677 76.6731 61.8096C77.0952 63.7449 77.9394 65.4987 79.1454 67.0106C79.7786 67.7967 80.5022 68.5225 81.2861 69.1575C83.0349 70.5484 85.1152 71.4555 87.2861 71.7882C87.9494 71.8789 88.6127 71.9393 89.276 71.9393C90.2107 71.9393 91.1453 71.8486 92.08 71.637C99.0448 70.0948 103.447 63.1703 101.909 56.1854C100.613 50.289 95.5172 46.1161 89.4871 46.0254H88.3413C88.7333 45.3904 89.0951 44.7252 89.4268 44.06C97.5674 44.1204 104.201 50.803 104.201 58.9975C104.201 67.192 97.5372 73.9351 89.3062 73.9351C89.3062 73.9351 89.2459 73.9351 89.2157 73.9351C89.1856 73.9351 89.1554 73.9351 89.1253 73.9351C87.8891 73.9351 86.6529 73.7536 85.477 73.4512C80.3213 72.0905 76.2811 68.0084 74.9244 62.868C74.6229 61.6887 74.442 60.4489 74.442 59.2092C74.442 59.2092 74.442 59.1487 74.442 59.1185C74.442 59.1185 74.442 59.058 74.442 59.0277C74.442 58.9975 74.442 58.9673 74.442 58.937C74.442 58.937 74.442 58.8766 74.442 58.8463C74.442 57.6066 74.6229 56.3668 74.9244 55.1875C74.9847 54.9154 74.8339 54.6735 74.5927 54.5828C74.3214 54.5223 74.0802 54.6735 73.9897 54.9154C73.6581 56.1854 73.4771 57.4856 73.4771 58.8161V58.8766C73.4771 58.8766 73.4771 58.9673 73.4771 58.9975C73.4771 59.0277 73.4771 59.0882 73.4771 59.1185V59.1789C73.4771 60.5094 73.6581 61.8096 73.9897 63.0796C75.4369 68.5829 79.7485 72.907 85.2358 74.3584C86.5022 74.691 87.7986 74.8724 89.1253 74.8724H89.1856C89.1856 74.8724 89.2459 74.8724 89.3062 74.8724C98.0498 74.8724 105.165 67.7363 105.165 58.9673C105.165 50.1983 98.3815 43.3947 89.9092 43.0923C90.2408 42.4271 90.5122 41.7316 90.7835 41.0362C100.04 41.7921 107.276 49.5935 107.276 58.9975C107.276 68.4015 99.889 76.3843 90.4519 76.9891C90.0298 76.9891 89.668 77.0193 89.3062 77.0193C88.6127 77.0193 87.9192 76.9891 87.1655 76.8984C85.8991 76.7472 84.6328 76.4448 83.4268 76.0517C78.2711 74.2677 74.1103 70.0948 72.3314 64.9241C72.1204 64.2589 71.9093 63.5937 71.7586 62.9284V59.9046C71.7586 59.9046 71.8189 56.6994 71.0953 54.8247C71.0048 54.5828 70.7033 54.4618 70.4621 54.5525C70.2209 54.6432 70.1003 54.9456 70.1907 55.1875C70.8541 56.8808 70.7938 59.8744 70.7938 59.9046V63.0192V70.8508V89.7797C70.7033 95.3435 66.844 100.091 61.417 101.3C54.9949 102.722 48.603 98.6395 47.1558 92.1988C46.8241 90.7171 46.794 89.2355 47.005 87.7538C47.3367 85.7279 48.1507 83.7926 49.4472 82.19C50.0502 81.4038 50.5929 80.7991 51.407 80.2245C52.8241 79.1057 54.4522 78.3498 56.2009 77.9567C56.4421 77.8962 56.6833 77.866 56.9245 77.8055C58.1607 77.6241 59.3969 77.6241 60.6029 77.8055C61.0551 77.866 61.5375 77.9869 61.9898 78.1079C62.02 78.1079 62.0803 78.1079 62.1104 78.1079C62.3215 78.1079 62.5024 77.9567 62.5627 77.745C62.623 77.4729 62.4722 77.231 62.231 77.1403C61.7486 77.0193 61.236 76.8984 60.7536 76.8077C59.427 76.596 58.1004 76.596 56.7738 76.8077C56.5024 76.8379 56.2311 76.8984 55.9899 76.9588C54.0904 77.3822 52.3417 78.1986 50.804 79.4081C49.9296 80.0431 49.2965 80.7386 48.6633 81.555C47.2764 83.3088 46.3719 85.3952 46.0402 87.5724C45.799 89.175 45.8291 90.8078 46.191 92.3802C47.5176 98.4278 52.8844 102.54 58.7939 102.54C59.7285 102.54 60.6632 102.449 61.5979 102.238C67.4772 100.938 71.638 95.8273 71.7284 89.7797V88.6307C72.3616 89.0238 73.0249 89.3867 73.6882 89.7193C73.6279 97.8835 66.9646 104.536 58.7939 104.536C50.6231 104.536 43.8995 97.8533 43.8995 89.5983C43.8995 89.5983 43.8995 89.5378 43.8995 89.5076C43.8995 89.4774 43.8995 89.4471 43.8995 89.4169C43.8995 88.1771 44.0804 86.9374 44.3819 85.7581C45.7387 80.5874 49.809 76.5355 54.9346 75.1748C56.1105 74.8724 57.3466 74.691 58.5828 74.691H58.9145C60.1506 74.691 61.3868 74.8724 62.5627 75.1748C62.5928 75.1748 62.6531 75.1748 62.6833 75.1748C62.8943 75.1748 63.1054 75.0236 63.1657 74.812C63.226 74.5398 63.0752 74.2979 62.834 74.2072C61.5677 73.8746 60.2712 73.6931 58.9446 73.6931H58.5828C57.2562 73.6931 55.9597 73.8746 54.6934 74.2072C49.206 75.6586 44.8945 79.9826 43.4473 85.4859C43.1156 86.7559 42.9347 88.0562 42.9347 89.3866V89.4471C42.9347 89.4471 42.9347 89.5076 42.9347 89.5681C42.9347 98.3371 50.0502 105.473 58.7939 105.473C67.5375 105.473 74.3214 98.6697 74.6229 90.1728C75.2862 90.5054 75.9796 90.7776 76.6731 91.0497C75.9193 100.333 68.1405 107.59 58.7939 107.59" fill="#B01C1A"/>
<path d="M62.3494 63.296C61.1735 64.566 58.8218 64.566 58.7916 64.566H28.0683C25.0231 64.566 22.5508 62.0864 22.5508 59.0324C22.5508 55.9784 25.0231 53.4989 28.0683 53.4989C31.1135 53.4989 33.5858 55.9784 33.5858 59.0324C33.5858 60.1512 33.2542 61.2095 32.6512 62.1167C32.5004 62.3283 32.5607 62.6307 32.7718 62.7819C32.9828 62.9331 33.2843 62.8726 33.4351 62.661C34.1587 61.5724 34.5506 60.3326 34.5506 59.0324C34.5506 55.4341 31.6261 52.5312 28.0683 52.5312C24.5105 52.5312 21.5859 55.4643 21.5859 59.0324C21.5859 62.6005 24.5105 65.5336 28.0683 65.5336H45.5556C45.5556 65.5336 45.646 65.5336 45.7063 65.5336C45.7666 65.5336 45.7968 65.5336 45.8571 65.5336H58.7916C58.9725 65.5336 61.5655 65.5336 63.0429 63.9612C63.2238 63.7798 63.2238 63.4472 63.0429 63.2657C62.862 63.0843 62.5303 63.0843 62.3494 63.2657" fill="#B01C1A"/>
<path d="M62.4445 67.0721C61.1178 67.7373 58.947 67.8583 58.7962 67.8885H28.0729C24.0327 67.7978 20.5654 64.9554 19.691 60.964C18.6358 56.2167 21.6508 51.4693 26.3845 50.411C29.0679 49.8062 31.8115 50.4714 33.9221 52.2555C34.2839 52.6486 34.6758 53.0417 35.0678 53.4045C35.9723 54.4931 36.5753 55.7631 36.907 57.1238C37.2688 58.7869 37.1482 60.5104 36.5753 62.0828V62.1735C36.4547 62.4154 36.5753 62.7178 36.8165 62.8085C36.8768 62.8085 36.9371 62.8388 36.9974 62.8388C37.1783 62.8388 37.3894 62.7178 37.4497 62.5364V62.4457C38.1431 60.6919 38.2638 58.7566 37.8416 56.9121C37.51 55.37 36.8165 53.9488 35.7914 52.7393C35.4296 52.2857 35.0075 51.8624 34.5552 51.4995C32.2035 49.5341 29.1583 48.7781 26.1734 49.4434C20.8971 50.6226 17.5805 55.8538 18.7262 61.1454C19.691 65.5602 23.5202 68.7352 28.0427 68.8259H58.8264C58.8264 68.8259 61.2987 68.7049 62.8967 67.9187C63.1379 67.7978 63.2284 67.4954 63.1078 67.2535C62.9872 67.0116 62.6857 66.9209 62.4445 67.0418" fill="#B01C1A"/>
<path d="M55.1121 33.6609C56.1975 34.3866 57.4337 34.7797 58.7301 34.7797C62.318 34.7797 65.2125 31.8466 65.2125 28.2785C65.2125 24.7104 62.2879 21.7773 58.7301 21.7773C55.1724 21.7773 52.2478 24.7104 52.2478 28.2785V45.8165C52.2478 45.8165 52.2176 46.0282 52.2478 46.1189V58.6979C52.2478 58.6979 52.3081 61.631 53.8759 63.2941C53.9664 63.3848 54.087 63.4452 54.2377 63.4452C54.3583 63.4452 54.4789 63.415 54.5694 63.3243C54.7804 63.1429 54.7804 62.8405 54.5694 62.6288C53.2729 61.2379 53.2126 58.6979 53.2126 58.6676V45.9979V28.2483C53.2126 25.1942 55.6849 22.7147 58.7301 22.7147C61.7753 22.7147 64.2477 25.1942 64.2477 28.2483C64.2477 31.3023 61.7753 33.7818 58.7301 33.7818C57.6146 33.7818 56.5593 33.4492 55.6548 32.8444C55.4437 32.6932 55.1422 32.7537 54.9915 32.9654C54.8407 33.1771 54.901 33.4794 55.1121 33.6306" fill="#B01C1A"/>
<path d="M50.3177 63.4471C50.3177 63.4471 50.4383 63.4471 50.5288 63.4168C50.77 63.2959 50.8906 63.0238 50.77 62.7818C49.9258 60.8466 49.9258 58.5485 49.9258 58.5183V28.2803C50.0162 24.1982 52.8503 20.7511 56.8302 19.8742C61.5638 18.8159 66.2975 21.8397 67.3527 26.587C67.9557 29.2782 67.2924 32.0298 65.5136 34.1465C65.1216 34.5094 64.7296 34.9025 64.3678 35.2955C63.2824 36.2027 62.0161 36.8074 60.6593 37.1401C59.0011 37.5029 57.2825 37.382 55.7146 36.8074H55.6242C55.383 36.6865 55.0815 36.8074 54.991 37.0493C54.9006 37.2913 54.991 37.5936 55.2624 37.6843H55.3528C56.4383 38.1379 57.584 38.3193 58.7297 38.3193C59.4533 38.3193 60.1468 38.2286 60.8402 38.0774C62.3779 37.7448 63.7648 37.0493 65.001 36.0213C65.4533 35.6584 65.8754 35.2351 66.2372 34.7815C68.197 32.4229 68.9507 29.3689 68.2874 26.3753C67.1115 21.0837 61.8955 17.7575 56.6192 18.9066C52.2172 19.8742 49.0514 23.7144 48.9609 28.2501V58.4881C48.9609 58.4881 48.9609 61.028 49.8654 63.1447C49.9559 63.3261 50.1368 63.4471 50.3177 63.4471Z" fill="#B01C1A"/>
<path d="M64.2343 61.7447V72.0559V89.8055C64.2343 92.8596 61.7619 95.3391 58.7167 95.3391C55.6715 95.3391 53.1992 92.8596 53.1992 89.8055C53.1992 86.7515 55.6715 84.272 58.7167 84.272C59.8323 84.272 60.8876 84.6046 61.7921 85.2094C62.0031 85.3606 62.3046 85.3001 62.4554 85.0884C62.6061 84.8768 62.5458 84.5744 62.3348 84.4232C61.2494 83.6975 60.0132 83.3044 58.7167 83.3044C55.1288 83.3044 52.2344 86.2375 52.2344 89.8055C52.2344 93.3736 55.159 96.3067 58.7167 96.3067C62.2745 96.3067 65.1991 93.3736 65.1991 89.8055V72.2373C65.1991 72.2373 65.1991 72.0559 65.1991 71.9651V62.0169C65.1991 62.0169 65.1991 61.8959 65.1991 61.8354V61.7145V59.9607V59.3559C65.1991 59.3559 65.0785 56.3019 63.4805 54.6086C63.2996 54.4271 62.9981 54.3969 62.787 54.6086C62.6061 54.79 62.576 55.0924 62.787 55.304C64.1438 56.7252 64.2343 59.3862 64.2343 59.3862V61.7447Z" fill="#B01C1A"/>
<path d="M67.5381 54.765C67.4175 54.5231 67.116 54.4324 66.8748 54.5533C66.6336 54.6743 66.5431 54.9767 66.6637 55.2186C67.4175 56.791 67.5381 59.6031 67.5381 59.6031V89.8108C67.4476 93.8929 64.6135 97.34 60.6336 98.2169C58.3422 98.731 55.9905 98.3077 54.0005 97.0377C52.0106 95.7677 50.6538 93.8022 50.1413 91.5041C49.5382 88.8129 50.2317 86.0613 51.9804 83.9446C52.4025 83.4911 52.7041 83.1887 53.1262 82.7956C54.2116 81.8885 55.4779 81.2837 56.8648 80.9511C58.5231 80.5882 60.2417 80.7092 61.8095 81.2837H61.9C62.1412 81.4046 62.4427 81.2837 62.5331 81.0418C62.6236 80.7999 62.503 80.4975 62.2618 80.4068H62.1713C60.4226 79.7113 58.4929 79.5904 56.6538 80.0137C55.1161 80.3463 53.7292 81.0418 52.493 82.0699C52.0709 82.4932 51.7694 82.7956 51.3171 83.2492C49.3573 85.6077 48.6036 88.6618 49.2669 91.6553C49.8398 94.2255 51.3473 96.4027 53.5483 97.7936C55.1462 98.8217 56.9553 99.3358 58.7944 99.3358C59.5181 99.3358 60.2115 99.245 60.9351 99.0938C65.3371 98.1262 68.5029 94.286 68.5934 89.7503V59.5124C68.5934 59.5124 68.4728 56.4583 67.6285 54.7045" fill="#B01C1A"/>
</svg>
