<svg width="59" height="54" viewBox="0 0 59 54" fill="none" xmlns="http://www.w3.org/2000/svg">
<path d="M26.0065 0.196065C19.861 0.977694 14.0824 4.47203 9.86308 10.0814C9.17515 10.955 8.71653 11.8745 8.89998 12.0584C9.08343 12.2423 9.45032 11.9665 9.77136 11.4607C10.0465 10.955 11.1931 9.57561 12.2938 8.38018L14.3117 6.17323L15.6417 7.13877L16.9258 8.05833L15.5958 9.94344C14.8162 11.0009 14.3576 11.9665 14.4951 12.1044C14.6327 12.2423 15.1372 11.8745 15.55 11.2768C17.4762 8.3342 17.4303 8.38018 19.8151 9.29974C21.6496 9.98942 21.8789 10.2193 21.4662 10.909C20.9158 11.9205 21.4203 12.6102 22.0165 11.6906C22.2458 11.3228 22.521 10.863 22.5669 10.7251C22.7503 10.2653 28.162 11.2308 28.4831 11.7826C28.6665 12.1044 28.85 12.1044 28.9417 11.7826C29.0334 11.5527 30.4093 11.1389 31.9686 10.909C34.5827 10.4952 34.8579 10.5412 35.133 11.3228C35.4999 12.5182 36.2796 12.3343 36.0044 11.0929C35.7751 10.2193 36.0044 9.98942 37.8389 9.34572L39.9486 8.56409L41.141 10.3572C41.783 11.3228 42.5168 12.1504 42.7461 12.1504C43.2506 12.1504 42.9296 11.5987 41.462 9.52963L40.3613 8.10431L41.8748 7.13877L43.3423 6.21921L44.8558 7.69051C45.6813 8.47214 46.782 9.8055 47.3782 10.6331C48.6623 12.5642 49.3961 12.6102 48.2954 10.7251C46.7361 8.05833 41.9665 3.9203 38.5268 2.26508C35.5458 0.885737 34.3534 0.56389 29.8131 0.0121517C29.171 -0.0338268 27.4741 0.0581303 26.0065 0.196065ZM34.0782 1.52943C34.6286 2.08117 31.0513 3.41454 28.8958 3.41454C26.832 3.41454 23.1631 2.08117 23.7134 1.52943C24.6306 0.655847 33.2068 0.655847 34.0782 1.52943ZM22.8879 2.63291C22.7962 2.67889 21.5579 3.73638 20.0903 4.93182C18.6686 6.12725 17.3386 7.09279 17.1551 7.09279C16.9717 7.09279 16.4213 6.77094 15.9627 6.31116C15.1831 5.62149 15.1831 5.52953 16.7424 4.47203C19.1272 2.8628 22.2 1.62139 22.6586 2.08117C22.8879 2.31106 23.0255 2.54095 22.8879 2.63291ZM38.802 3.23062C40.0403 3.87432 41.3703 4.70193 41.7372 5.06975C42.3334 5.66747 42.2875 5.85138 41.3244 6.58703C40.2237 7.46062 40.2237 7.46062 37.3803 5.06975C35.821 3.78236 34.6286 2.58693 34.7203 2.35704C35.0872 1.71334 36.5548 2.03519 38.802 3.23062ZM24.6765 3.36856C25.181 3.64443 24.9975 4.3341 23.8051 6.4491C22.9796 7.96638 22.2917 9.20779 22.2 9.29974C22.1541 9.3917 21.2369 9.06985 20.1362 8.65605L18.1641 7.82844L20.87 5.3916C23.7134 2.77084 23.7593 2.77084 24.6765 3.36856ZM38.0224 6.81692L39.123 8.01235L37.472 8.70203C36.5548 9.06985 35.6375 9.3917 35.4541 9.3917C35.2706 9.3917 34.4451 8.15029 33.6196 6.63301C32.2896 4.15019 32.1979 3.87432 32.9317 3.46052C33.7113 3.00073 35.6834 4.28812 38.0224 6.81692ZM28.0244 4.3341C28.2537 4.3341 28.4372 5.71345 28.4372 7.36866V10.4492L25.8231 10.1274C24.4013 9.94344 23.1172 9.75953 23.0255 9.62159C22.9338 9.52963 23.6217 8.19627 24.5389 6.63301C25.7313 4.70193 26.4651 3.87432 26.9237 4.05823C27.2906 4.19617 27.7951 4.3341 28.0244 4.3341ZM32.7941 6.67899C33.7572 8.19627 34.3993 9.52963 34.3075 9.62159C34.2158 9.75953 32.9317 9.94344 31.5099 10.1274L28.8958 10.4492V7.41464C28.8958 4.65595 28.9875 4.38008 29.9506 4.19617C30.501 4.10421 31.0055 3.96628 31.0513 3.9203C31.0972 3.9203 31.8768 5.11573 32.7941 6.67899Z" fill="#B01C1A"/>
<path d="M21.0949 15.0068C18.5725 15.4666 16.9673 16.5701 15.9583 18.6391C14.2614 21.9035 15.3163 26.0876 18.2973 28.0186C19.2145 28.6164 21.7828 29.7198 24.03 30.5015C26.2314 31.2831 28.2952 32.0647 28.5704 32.2486C29.3042 32.7084 27.5156 33.7659 25.9562 33.7659C24.03 33.7199 20.8197 32.2027 20.1776 31.0532C19.7649 30.2716 19.2604 30.0877 17.4259 30.0877H15.1328V34.4556V38.8235H17.6552C19.8107 38.8235 20.1776 38.6856 20.1776 37.9499C20.1776 37.1223 20.2694 37.1223 22.1497 38.0879C24.8097 39.4212 29.3959 39.4212 31.6431 38.0879C33.9362 36.7545 35.3121 34.5016 35.3121 32.0647C35.3121 27.6048 33.0649 25.3519 26.5983 23.3748C22.2873 22.0875 20.8656 21.1679 22.0121 20.4322C23.7549 19.3288 28.6621 20.7541 29.9004 22.6852C30.359 23.4668 30.9552 23.6507 32.6521 23.6507H34.8535V19.5127V15.3746H32.5604C30.8635 15.3746 30.2673 15.5586 30.2673 16.0183C30.2673 16.5701 29.9462 16.5701 28.3411 15.8804C25.7728 14.7769 23.6631 14.5011 21.0949 15.0068Z" fill="#B01C1A"/>
<path d="M45.1775 14.7722C38.9861 16.1516 36.2344 19.7839 36.2344 26.5886C36.2344 30.9565 36.8306 33.1635 38.6192 35.3705C42.1964 39.6924 49.7178 40.52 54.6709 37.1176C58.8443 34.267 60.3119 26.4047 57.6978 20.7954C55.5881 16.2435 50.2223 13.6228 45.1775 14.7722ZM49.3509 20.7954C51.5523 22.2207 51.9192 30.4508 49.9471 32.4278C48.7547 33.6233 46.2323 33.5773 45.1316 32.3359C44.3978 31.5083 44.2602 30.6347 44.2602 26.7725C44.2602 22.4966 44.3519 22.1287 45.3609 21.3011C46.4157 20.4275 48.4337 20.1517 49.3509 20.7954Z" fill="#B01C1A"/>
<path d="M0 17.6723V20.431H1.60517H3.21034V26.6381V32.8451H1.60517H0V35.8337V38.8223H6.8793H13.7586V35.8337V32.8451H12.1534H10.5483V26.6381V20.431H12.1534H13.7586V17.6723V14.9136H6.8793H0V17.6723Z" fill="#B01C1A"/>
<path d="M8.71094 41.9008C8.71094 42.7744 12.8844 47.3262 15.3609 49.1653C22.332 54.3609 30.954 55.1425 38.8423 51.2343C41.8233 49.763 43.1992 48.7055 45.8133 45.9009C48.9778 42.4985 49.574 41.5789 48.6109 41.5789C48.3816 41.5789 48.1523 41.7628 48.1523 41.9468C48.1523 42.1307 47.0974 43.51 45.8133 44.9353L43.5202 47.5561L42.1443 46.5446C40.4933 45.3032 40.4933 45.1192 42.0067 43.1422C43.6119 41.0732 42.7864 41.1191 41.0436 43.2341L39.6678 44.8894L37.6957 44.0617C36.1364 43.464 35.7237 43.0962 35.9071 42.4525C36.1823 41.441 35.5402 41.2571 35.1274 42.2686C34.944 42.8203 34.3019 42.9123 32.0088 42.6364C30.4037 42.4985 28.9819 42.1766 28.8444 41.9008C28.6609 41.6249 28.4775 41.6249 28.3857 41.9008C28.294 42.1766 26.9182 42.4985 25.313 42.6824C22.974 42.9583 22.4237 42.8663 22.1944 42.3146C21.7816 41.2571 21.1395 41.441 21.4147 42.4985C21.5982 43.2341 21.2771 43.602 19.672 44.2457L17.654 45.1192L16.3699 43.3261C14.5354 40.8893 13.8475 41.1191 15.5444 43.602L16.9202 45.579L15.5902 46.5446L14.3061 47.5101L11.9671 44.9813C10.683 43.556 9.62818 42.2226 9.62818 41.9927C9.62818 41.7628 9.44473 41.5789 9.16956 41.5789C8.94025 41.5789 8.71094 41.7169 8.71094 41.9008ZM28.4316 46.4526V49.4412L27.1933 49.3033C26.1844 49.2113 25.5882 48.5676 24.3957 46.6365C22.6988 43.7859 22.8823 43.51 26.5054 43.464L28.4316 43.4181V46.4526ZM33.7975 43.7859C34.2561 44.0617 34.0268 44.7974 32.8802 46.6825C31.7337 48.6136 31.1375 49.2113 30.1285 49.3033L28.8902 49.4412V46.4526V43.4181H31.0916C32.284 43.4181 33.5223 43.602 33.7975 43.7859ZM23.7537 46.9584C26.0926 51.0504 24.4875 51.4642 20.4057 47.832L18.1126 45.8089L19.7178 45.0733C20.5892 44.7054 21.5523 44.3836 21.7816 44.3836C22.0568 44.3836 22.9282 45.533 23.7537 46.9584ZM37.5581 44.8434C38.3837 45.1192 38.934 45.579 38.8423 45.9009C38.6588 46.4986 34.0726 50.3148 33.5681 50.3148C33.3847 50.3148 32.9719 50.1309 32.6509 49.947C32.2381 49.6711 32.4216 48.9354 33.5681 46.9584C35.2192 44.1537 35.3568 44.0617 37.5581 44.8434ZM20.3599 48.7055C22.5154 50.6826 22.8823 51.2803 22.2861 51.5102C21.5523 51.7861 17.654 50.0849 15.8195 48.6596C14.9023 47.9699 14.9023 47.9699 16.0489 47.0963C16.6909 46.5905 17.2871 46.2227 17.4247 46.2227C17.5623 46.2227 18.8464 47.3262 20.3599 48.7055ZM41.5023 46.9124C42.1443 47.3262 42.6488 47.786 42.6488 47.9699C42.6488 48.4297 38.0168 51.1424 36.595 51.4642C34.1643 52.062 34.3019 51.1884 37.0078 48.7055C38.4754 47.3262 39.8512 46.2227 40.0347 46.1767C40.2181 46.1767 40.9061 46.4986 41.5023 46.9124ZM33.2012 51.0964C35.4026 52.2459 33.9809 52.8436 28.8902 52.8436C23.983 52.8436 22.3778 52.2459 24.3499 51.1884C27.0099 49.763 30.5413 49.7171 33.2012 51.0964Z" fill="#B01C1A"/>
</svg>
