<svg width="126" height="30" viewBox="0 0 126 30" fill="none" xmlns="http://www.w3.org/2000/svg">
<g clip-path="url(#clip0_1393_7919)">
<path d="M106.065 12.5647V18.8738C106.065 19.4902 105.886 19.6784 105.32 19.6784H104.769C103.214 19.6784 102.971 18.1902 102.971 17.472V12.6847C102.971 11.6247 102.356 11.0602 101.222 11.0602C100.46 11.0602 99.7486 11.2311 99.7157 11.2311V18.8911C99.7157 19.5074 99.5374 19.6947 98.9544 19.6947H98.5489C96.7033 19.6947 96.6057 18.0874 96.6057 17.4893V4.4429C96.6057 3.82744 96.7831 3.63926 97.367 3.63926H98.0307C99.3262 3.63926 99.7157 4.92108 99.7157 5.52017V8.22199C99.7805 8.22199 100.655 8.06744 101.627 8.06744C104.671 8.06744 106.065 9.72653 106.065 12.5647ZM49.5207 8.39199H48.4027C47.4798 8.39199 47.2048 8.52926 47.0752 9.21381L46.3627 12.9238C46.2651 13.4711 45.8765 13.642 45.5366 12.9238L44.4186 10.1874C44.4186 10.1874 43.998 8.85472 42.9447 8.85472C41.9243 8.85472 41.4381 10.1547 41.4381 10.1547L40.32 12.9238C40.1106 13.4365 39.6563 13.5393 39.5268 12.9238L38.7663 9.19653C38.6359 8.52926 38.3289 8.3929 37.438 8.3929H36.2064C35.4939 8.3929 35.3812 8.58108 35.5915 9.3329L37.7938 17.6093C37.9402 18.1729 38.4256 19.6784 39.8675 19.6784C40.6608 19.6784 41.0494 19.3529 41.2766 18.8056C41.6324 17.9684 42.4585 15.9165 42.4585 15.9165C42.6368 15.3347 43.2038 15.4374 43.3174 15.9165C43.3174 15.9165 43.8356 17.3347 44.0628 18.0365C44.2402 18.5838 44.7913 19.6611 46.0868 19.6611H46.4435C47.2048 19.6611 47.6742 18.7884 47.8197 18.2247L50.2013 9.31563C50.3628 8.59744 50.266 8.3929 49.5207 8.3929V8.39199ZM56.6148 8.06744C55.6432 8.06744 54.7692 8.22199 54.7036 8.22199V5.52017C54.7036 4.90472 54.3309 3.63926 53.0194 3.63926H52.3548C51.7718 3.63926 51.5944 3.82744 51.5944 4.4429V17.4893C51.5944 18.1047 51.6742 19.6947 53.5376 19.6947H53.9422C54.5261 19.6947 54.7036 19.5074 54.7036 18.8911V11.2138C54.7204 11.2138 55.4489 11.0429 56.2102 11.0429C57.3442 11.0429 57.9591 11.6065 57.9591 12.6674V17.4547C57.9591 18.1911 58.2023 19.6611 59.7569 19.6611H60.3079C60.858 19.6611 61.0532 19.4729 61.0532 18.8574V12.5484C61.0532 9.72653 59.6601 8.06744 56.6148 8.06744ZM71.9052 12.6502V18.1565C71.9052 18.9429 71.7428 19.1474 71.1439 19.422C70.3666 19.7974 69.0223 20.0029 67.2565 20.0029C63.5147 20.0029 62.5431 18.7374 62.5431 16.4293C62.5431 13.7111 63.9681 12.8729 67.3373 12.8729C67.8723 12.8729 68.4713 12.8902 68.7951 12.9238V12.4456C68.7951 11.3847 68.3417 10.8374 67.2077 10.8374C66.3825 10.8374 65.8794 11.1111 65.5076 11.642C65.1837 12.1202 65.0214 12.2229 64.4544 11.9838L63.3204 11.4874C62.7862 11.2484 62.6238 10.9402 62.9157 10.342C63.6283 8.90563 65.1021 8.08472 67.3213 8.08472C70.804 8.06744 71.9052 9.9829 71.9052 12.6502ZM67.8555 15.3865C67.5485 15.3865 67.3541 15.3684 67.0782 15.3684C65.9122 15.3684 65.6531 15.8311 65.6531 16.412C65.6531 17.0447 65.8794 17.472 67.0294 17.472C67.8883 17.472 68.3905 17.4211 68.6496 17.3865C68.7304 17.3693 68.7951 17.3356 68.7951 17.2329V16.3438C68.8084 16.2143 68.7931 16.0834 68.7505 15.9607C68.7079 15.838 68.6389 15.7267 68.5488 15.6349C68.4587 15.5431 68.3496 15.4731 68.2296 15.4301C68.1097 15.3871 67.9818 15.3722 67.8555 15.3865ZM79.7119 16.6684C78.6755 17.1474 77.8175 16.7202 77.8175 15.5747V11.2993H79.7279C80.2789 11.2993 80.4732 11.1111 80.4732 10.4956V9.19563C80.4732 8.58108 80.2958 8.3929 79.7279 8.3929H77.8175V7.36653C77.8175 6.75108 77.4448 5.48563 76.1324 5.48563H75.4687C74.8857 5.48563 74.7074 5.67381 74.7074 6.28926V8.41017H73.6222C73.0392 8.41017 72.8609 8.59835 72.8609 9.21381V10.5138C72.8609 11.1284 73.0383 11.3165 73.6222 11.3165H74.7074V16.6347C74.7074 18.5838 75.7598 19.9684 77.7358 19.9856C78.9515 20.0029 80.554 19.5074 80.554 18.002C80.5708 17.2156 79.8743 16.6002 79.7119 16.6684ZM125.161 16.6684C124.124 17.1474 123.266 16.7202 123.266 15.5747V11.2993H125.177C125.728 11.2993 125.923 11.1111 125.923 10.4956V9.19563C125.923 8.58108 125.744 8.3929 125.177 8.3929H123.266V7.36653C123.266 6.75108 122.894 5.48563 121.581 5.48563H120.917C120.334 5.48563 120.156 5.67381 120.156 6.28926V8.40926H119.071C118.488 8.40926 118.31 8.59835 118.31 9.21381V10.5138C118.31 11.1284 118.487 11.3165 119.071 11.3165H120.156V16.6347C120.156 18.5838 121.209 19.9684 123.185 19.9856C124.4 20.0029 126.004 19.5074 126.004 18.0029C126.02 17.2165 125.307 16.6002 125.161 16.6684ZM86.5638 12.6674C85.1219 12.5311 84.5389 12.3593 84.5709 11.6929C84.6037 11.0429 85.381 10.8038 86.0616 10.8547C86.8868 10.9238 87.3571 11.1111 87.6969 11.4193C88.3287 11.9829 89.1548 12.052 89.7218 11.7956L90.2888 11.5393C90.8389 11.2829 90.9853 10.9747 90.6934 10.3938C89.9809 8.95744 88.4423 8.06744 85.9799 8.06744C83.0491 8.06744 81.5584 9.5729 81.5584 11.6929C81.5584 14.4456 83.6152 15.0274 85.7697 15.2493C87.373 15.4038 87.956 15.5574 87.956 16.292C87.956 16.9084 87.3571 17.182 86.1902 17.182C85.5913 17.182 84.7652 16.7884 84.3606 16.4638C84.0695 16.2238 83.7448 15.8311 82.7084 16.1047C82.5141 16.1556 82.0606 16.3265 82.0606 16.3265C81.5105 16.5147 81.3641 16.8393 81.5744 17.4038C82.1902 19.0284 83.7776 19.9856 86.3038 19.9856C89.3003 19.9856 90.9365 18.4465 90.9365 16.2065C90.9206 13.6429 89.3172 12.9584 86.5638 12.6674ZM117.531 12.6502V15.4547C117.531 18.2929 115.863 20.0029 112.625 20.0029C109.418 20.0029 107.733 18.2938 107.733 15.4547V12.6502C107.733 9.81199 109.418 8.06835 112.625 8.06835C115.88 8.06835 117.531 9.81199 117.531 12.6502ZM114.438 12.5993C114.438 11.5393 113.839 10.9747 112.625 10.9747C111.427 10.9747 110.843 11.5384 110.843 12.5993V15.4538C110.843 16.4974 111.442 17.0793 112.625 17.0793C113.84 17.0793 114.438 16.4974 114.438 15.4547V12.5993ZM2.43041 12.582C3.11897 12.512 3.52359 11.8147 4.38607 12.1402C5.28227 12.4765 5.57775 14.8838 6.23348 17.4874C6.58309 18.8356 6.97617 20.9629 8.29828 20.9629C10.5051 20.9629 10.647 17.9756 11.5104 17.5456C11.9585 17.3247 12.2975 17.2202 12.5486 16.2438C12.7997 15.2674 13.1715 15.1047 13.4891 15.1274C13.8929 15.1511 13.9585 15.5811 14.3294 16.6038C14.7553 17.7784 15.3348 19.6265 15.7829 20.8002C16.2744 22.1138 16.9302 23.3811 18.2088 23.3929C19.7492 23.4047 20.2523 21.8929 20.7874 20.3702C21.3774 18.7084 22.0988 15.4647 22.8309 13.6974C23.2346 12.6974 23.8034 12.1284 24.7759 12.4311C26.3491 12.9311 27.1362 12.0938 27.3323 11.0356C25.7715 4.70017 20.3499 0.015625 13.9035 0.015625C7.34796 0.015625 1.85187 4.8629 0.398438 11.3729C0.671733 12.1165 1.2831 12.6865 2.43041 12.582Z" fill="#0D0D0D"/>
<path d="M27.3221 11.0234C27.1251 12.0807 26.339 12.9062 24.7649 12.418C23.7924 12.1153 23.2351 12.6853 22.8199 13.6853C22.0993 15.4516 21.3673 18.6943 20.7772 20.358C20.2413 21.8798 19.7284 23.3916 18.1987 23.3798C16.9307 23.368 16.2749 22.1007 15.7727 20.788C15.3353 19.6134 14.7452 17.7771 14.3193 16.5907C13.9475 15.568 13.8818 15.138 13.4781 15.1153C13.1613 15.0916 12.7895 15.2543 12.5375 16.2307C12.2873 17.2071 11.9377 17.3125 11.5003 17.5325C10.6369 17.9625 10.4949 20.9507 8.28815 20.9507C6.96603 20.9507 6.57206 18.8343 6.22246 17.4743C5.55696 14.8707 5.27213 12.4653 4.37682 12.1271C3.51257 11.8016 3.10795 12.4998 2.42027 12.5689C1.27296 12.6734 0.66071 12.1153 0.388301 11.3598C0.141279 12.4776 0.0162861 13.6201 0.015625 14.7662C0.015625 22.9153 6.22246 29.5298 13.8934 29.5298C21.5528 29.5298 27.7702 22.9262 27.7702 14.7662C27.7702 13.4753 27.6167 12.2207 27.3221 11.0234Z" fill="#9D9D9C"/>
</g>
<defs>
<clipPath id="clip0_1393_7919">
<rect width="126" height="30" fill="white"/>
</clipPath>
</defs>
</svg>
