<svg width="65" height="22" viewBox="0 0 65 22" fill="none" xmlns="http://www.w3.org/2000/svg">
<g clip-path="url(#clip0_1397_7597)">
<path d="M0.00450323 17.517C5.66938 17.517 11.3343 17.517 16.9991 17.517C17.2788 17.517 17.4187 17.3758 17.4187 17.0936C17.4187 16.8782 17.4197 16.6622 17.4187 16.4468C17.4172 16.1329 17.4067 16.1209 17.1002 16.1204C16.4034 16.119 15.7067 16.1204 15.01 16.12C14.6546 16.12 14.6387 16.105 14.6387 15.7617C14.6382 12.5941 14.6382 9.42691 14.6387 6.25925C14.6387 5.9289 14.6492 5.91846 14.9687 5.91846C17.1171 5.91846 19.265 5.91846 21.4134 5.91846C21.7448 5.91846 21.7543 5.92691 21.7538 6.24831C21.7538 11.4971 21.7533 16.7453 21.7523 21.9941C14.576 21.9941 7.40024 21.9931 0.223972 21.9996C0.0278933 21.9996 -0.000971041 21.9448 2.42811e-05 21.7662C0.00798686 20.3498 0.00450323 18.9329 0.00450323 17.5165V17.517Z" fill="#0D0D0D"/>
<path d="M21.7533 0.00447761C21.7538 1.36418 21.7548 2.72338 21.7548 4.08308C21.7548 4.35008 21.6234 4.48375 21.3606 4.48408C15.8381 4.48458 10.315 4.48507 4.79248 4.48557C4.7014 4.48557 4.60983 4.48806 4.51876 4.48756C4.39435 4.48756 4.33761 4.55124 4.33761 4.67214C4.33761 5.0204 4.3396 5.36866 4.33612 5.71642C4.33413 5.91592 4.4685 5.91294 4.60784 5.91244C5.32099 5.91244 6.03414 5.91194 6.74729 5.91294C7.07276 5.91343 7.08172 5.92189 7.08172 6.24876C7.08221 9.41542 7.08072 12.5821 7.0847 15.7488C7.0847 15.9582 7.0643 16.0896 6.79656 16.0886C4.58246 16.0806 2.36837 16.0846 0.154275 16.0841C0.104509 16.0841 0.0552404 16.0766 0.00547427 16.0726C0.00547427 10.7861 0.00696725 5.49901 0 0.212438C0 0.0293532 0.0442918 0 0.218473 0C7.39674 0.00497512 14.575 0.00447761 21.7533 0.00447761Z" fill="#0D0D0D"/>
<path d="M65.0016 13.5368C64.0893 13.5363 63.1771 13.5363 62.2644 13.5343C61.9409 13.5338 61.9181 13.5129 61.9181 13.201C61.9171 11.2279 61.92 9.25424 61.9141 7.28111C61.9136 7.05175 61.9753 6.9428 62.2226 6.95971C62.462 6.97613 62.7039 6.97066 62.9437 6.96121C63.1358 6.95374 63.212 7.02986 63.2095 7.2229C63.2025 7.73683 63.2075 8.25076 63.2075 8.76519C63.2075 9.83484 63.207 10.9045 63.208 11.9741C63.208 12.2816 63.2224 12.2955 63.5335 12.296C64.0227 12.297 64.5119 12.2945 65.0016 12.2935V13.5373V13.5368Z" fill="#0D0D0D"/>
<path d="M42.7276 10.1582C43.1834 10.1582 43.6398 10.1651 44.0957 10.1552C44.3136 10.1502 44.4007 10.2492 44.3947 10.4512C44.346 12.0208 43.268 13.5706 41.4038 13.6825C40.2751 13.7507 39.2509 13.4701 38.4751 12.6044C37.5474 11.5696 37.2677 10.3507 37.7445 9.04323C38.2168 7.74671 39.1847 6.98651 40.5742 6.81437C41.5461 6.69398 42.4574 6.86811 43.268 7.44273C43.4567 7.57607 43.6229 7.74074 43.799 7.89149C43.8946 7.97358 43.8936 8.05368 43.8025 8.14273C43.5831 8.35716 43.3641 8.57209 43.1516 8.79298C43.0436 8.90542 42.9734 8.85069 42.8829 8.7691C42.4484 8.37756 41.9552 8.12184 41.362 8.04273C40.1552 7.88154 39.0016 8.7084 38.8408 9.87706C38.6662 11.1472 39.5286 12.283 40.7768 12.4407C41.5203 12.5348 42.1812 12.4034 42.6798 11.794C42.7614 11.6945 42.9033 11.584 42.852 11.4577C42.7997 11.3288 42.629 11.3975 42.5121 11.395C42.1224 11.3875 41.7328 11.384 41.3431 11.395C41.1251 11.4009 41.0465 11.3144 41.0579 11.1014C41.0709 10.8701 41.0679 10.6373 41.0589 10.4054C41.052 10.2213 41.1331 10.1542 41.3102 10.1557C41.7825 10.1606 42.2553 10.1572 42.7281 10.1572L42.7276 10.1582Z" fill="#0D0D0D"/>
<path d="M32.8044 19.497C32.8044 19.3821 32.8044 19.292 32.8044 19.202C32.8044 18.0164 32.8039 16.8304 32.8044 15.6448C32.8044 15.3333 32.8168 15.3224 33.1258 15.3204C33.3583 15.3189 33.5907 15.3294 33.8226 15.3174C34.0296 15.307 34.1142 15.393 34.0968 15.594C34.0923 15.6433 34.0968 15.6935 34.0968 15.7433C34.0968 17.6751 34.0968 19.6075 34.0968 21.5393C34.0968 21.8756 34.0719 21.8557 33.7494 21.9035C33.1039 21.999 32.7148 21.7642 32.3794 21.1901C31.7319 20.0816 30.9919 19.0274 30.2897 17.9508C30.2409 17.8756 30.1867 17.804 30.1249 17.7164C30.0478 17.811 30.0762 17.9045 30.0757 17.9891C30.0737 19.1831 30.0747 20.3771 30.0737 21.5712C30.0737 21.8826 30.0612 21.8935 29.7532 21.896C29.5626 21.8975 29.3715 21.897 29.1809 21.896C28.8186 21.895 28.8161 21.8935 28.8161 21.5393C28.8156 20.2124 28.8161 18.8861 28.8161 17.5592C28.8161 16.9124 28.8231 16.2657 28.8126 15.6189C28.8091 15.3935 28.8858 15.3159 29.1137 15.3149C30.0125 15.3095 30.0145 15.302 30.5081 16.0572C31.2248 17.1542 31.9374 18.2532 32.6526 19.3508C32.6829 19.3975 32.6979 19.4587 32.8049 19.4965L32.8044 19.497Z" fill="#0D0D0D"/>
<path d="M55.2471 19.4666V19.1994C55.2471 18.0139 55.2466 16.8288 55.2476 15.6432C55.2476 15.3367 55.2625 15.3238 55.5726 15.3223C55.7965 15.3208 56.021 15.3343 56.2439 15.3188C56.4798 15.3024 56.543 15.4069 56.541 15.6258C56.533 16.5044 56.538 17.383 56.538 18.2616C56.538 19.3641 56.5385 20.4666 56.538 21.5691C56.538 21.882 56.5216 21.8596 56.2185 21.9014C55.5731 21.991 55.1699 21.777 54.8281 21.1835C54.1841 20.0646 53.4341 19.0064 52.7264 17.9243C52.6821 17.8566 52.6518 17.775 52.5602 17.7283C52.4831 17.8109 52.5169 17.9139 52.5169 18.0039C52.5144 19.1895 52.5154 20.3746 52.5149 21.5601C52.5149 21.885 52.505 21.8935 52.1795 21.8949C51.964 21.8959 51.748 21.887 51.533 21.8974C51.3285 21.9074 51.2563 21.8248 51.2578 21.6208C51.2648 20.6427 51.2608 19.6646 51.2608 18.6865C51.2608 17.6835 51.2608 16.6805 51.2608 15.6775C51.2608 15.3238 51.2628 15.3233 51.6266 15.3223C51.7759 15.3223 51.9277 15.3407 52.074 15.3183C52.3845 15.2711 52.5508 15.4188 52.71 15.6696C53.4978 16.9074 54.3035 18.1333 55.1038 19.3631C55.1301 19.4039 55.162 19.4412 55.1913 19.48C55.2103 19.4755 55.2292 19.4716 55.2481 19.4671L55.2471 19.4666Z" fill="#0D0D0D"/>
<path d="M33.2571 13.6895C31.3669 13.7198 29.8172 12.1761 29.8282 10.2338C29.8396 8.21835 31.3933 6.79596 33.272 6.77606C35.1477 6.75616 36.684 8.34373 36.6825 10.2631C36.681 12.186 35.176 13.692 33.2571 13.6895ZM35.3885 10.2656C35.39 8.99845 34.4684 8.0283 33.2581 8.02283C32.0453 8.01736 31.1146 8.98651 31.1146 10.2547C31.1146 11.5059 32.0348 12.4412 33.2665 12.4432C34.4858 12.4447 35.3871 11.5198 35.3885 10.2661V10.2656Z" fill="#0D0D0D"/>
<path d="M35.5343 18.597C35.5343 17.6274 35.5343 16.6582 35.5343 15.6886C35.5343 15.3214 35.5358 15.3139 35.912 15.3219C36.6485 15.3373 37.3856 15.2841 38.1221 15.3726C39.5459 15.5443 40.3337 16.4234 40.6413 17.6696C40.9324 18.8492 40.795 19.9796 39.9943 20.9557C39.5399 21.5099 38.9333 21.7811 38.2236 21.8473C37.4214 21.9219 36.6172 21.8816 35.8144 21.899C35.592 21.904 35.5298 21.8129 35.5313 21.6045C35.5382 20.602 35.5343 19.5995 35.5343 18.597ZM36.8257 18.5831C36.8257 19.1876 36.8292 19.7925 36.8237 20.397C36.8222 20.5741 36.8849 20.6577 37.0695 20.6502C37.293 20.6413 37.5174 20.6542 37.7404 20.6428C38.7198 20.594 39.2632 20.1298 39.4389 19.1895C39.4912 18.9109 39.4718 18.6274 39.4608 18.3468C39.427 17.4766 38.889 16.8249 38.0415 16.6284C37.7344 16.5572 37.4194 16.5433 37.1049 16.5269C36.8829 16.5154 36.8177 16.6085 36.8212 16.8189C36.8307 17.407 36.8247 17.995 36.8247 18.5831H36.8257Z" fill="#0D0D0D"/>
<path d="M57.8224 6.96262C58.5709 6.98053 58.4116 6.83675 58.6908 7.56063C59.407 9.41635 60.1216 11.2726 60.8377 13.1283C60.9945 13.5353 60.9965 13.5343 60.565 13.5348C60.3495 13.5348 60.1335 13.5273 59.9185 13.5367C59.7444 13.5442 59.6418 13.48 59.5836 13.3114C59.4776 13.0059 59.3497 12.7084 59.2442 12.4034C59.189 12.2442 59.0934 12.187 58.9292 12.188C58.1996 12.193 57.4701 12.1955 56.7405 12.187C56.5394 12.1845 56.4424 12.2696 56.3797 12.4512C56.2796 12.7407 56.1517 13.0208 56.0487 13.3094C55.989 13.4766 55.8865 13.5417 55.7128 13.5363C55.4476 13.5283 55.1823 13.5367 54.917 13.5338C54.6608 13.5308 54.6458 13.5049 54.7424 13.2547C55.4296 11.4766 56.1174 9.69894 56.8052 7.92083C56.8918 7.69645 56.9938 7.47705 57.0605 7.2467C57.1247 7.02531 57.2441 6.93028 57.4745 6.95914C57.589 6.97357 57.7064 6.96163 57.8224 6.96163V6.96262ZM57.8607 8.82232C57.8373 8.82232 57.8139 8.82282 57.79 8.82332C57.5372 9.46859 57.2839 10.1139 57.0316 10.7596C56.9883 10.8711 57.0261 10.9402 57.1501 10.9412C57.6049 10.9437 58.0603 10.9432 58.5151 10.9422C58.6266 10.9422 58.6634 10.888 58.6221 10.7815C58.3678 10.1288 58.1145 9.47556 57.8602 8.82232H57.8607Z" fill="#0D0D0D"/>
<path d="M47.1452 15.3215C47.9066 15.3359 47.7344 15.2061 48.0046 15.9001C48.7387 17.7842 49.4583 19.6742 50.1834 21.5618C50.3023 21.8707 50.2869 21.8926 49.946 21.8946C49.7554 21.8956 49.5618 21.8747 49.3747 21.8996C49.0691 21.9399 48.9208 21.8085 48.8402 21.5255C48.7651 21.2633 48.6476 21.014 48.5575 20.7558C48.5063 20.6095 48.4182 20.5478 48.2619 20.5488C47.5159 20.5533 46.7694 20.5533 46.0234 20.5488C45.8672 20.5478 45.7806 20.6085 45.7278 20.7548C45.6293 21.0275 45.5019 21.2906 45.4153 21.5668C45.3397 21.808 45.2167 21.925 44.9505 21.9001C44.7206 21.8782 44.4867 21.8981 44.2543 21.8946C43.997 21.8906 43.9721 21.8608 44.0651 21.6165C44.3836 20.7802 44.7086 19.9459 45.0306 19.111C45.4661 17.9822 45.9 16.8523 46.337 15.724C46.4932 15.3205 46.4962 15.3215 46.9217 15.3215C46.9964 15.3215 47.071 15.3215 47.1457 15.3215H47.1452ZM47.1795 17.1872C47.1576 17.1852 47.1352 17.1832 47.1133 17.1812C46.8555 17.8404 46.5977 18.4996 46.341 19.1593C46.3026 19.2578 46.3539 19.3006 46.447 19.3006C46.9018 19.3021 47.3567 19.3021 47.8115 19.3006C47.931 19.3006 47.9788 19.2439 47.9325 19.125C47.6812 18.4792 47.4303 17.8329 47.1795 17.1867V17.1872Z" fill="#0D0D0D"/>
<path d="M47.7266 10.2235C47.7281 8.43543 48.9857 7.02499 50.7733 6.81553C52.007 6.67125 53.0541 7.06578 53.9399 7.92499C54.0738 8.05484 54.0753 8.1429 53.9369 8.26578C53.7453 8.43643 53.5617 8.61752 53.387 8.80558C53.2681 8.93394 53.1875 8.92349 53.0631 8.80558C52.5868 8.35285 52.0309 8.05285 51.362 8.02001C49.8044 7.94439 48.7259 9.25384 49.0539 10.7817C49.3908 12.3484 51.2546 12.9125 52.5226 12.0981C52.7182 11.9727 52.9043 11.8329 53.0635 11.6628C53.1661 11.5528 53.2512 11.5578 53.3537 11.6663C53.5468 11.8713 53.7468 12.0698 53.9464 12.2688C54.038 12.3603 54.0504 12.4315 53.9494 12.5384C52.7132 13.8439 50.5713 14.0956 49.1275 13.0693C48.1586 12.3807 47.7202 11.4051 47.7266 10.224V10.2235Z" fill="#0D0D0D"/>
<path d="M32.2533 2.61147C32.2533 3.33286 32.2463 4.05426 32.2573 4.77515C32.2612 5.01495 32.1761 5.09356 31.9392 5.08709C31.1375 5.0647 31.2689 5.19256 31.258 4.39903C31.2525 4.00948 31.246 3.61943 31.2609 3.23038C31.2699 2.99605 31.1768 2.9254 30.9549 2.93336C30.5985 2.9458 30.2417 2.94331 29.8854 2.93436C29.6928 2.92988 29.6201 3.00401 29.6226 3.19704C29.6306 3.72739 29.6162 4.25824 29.6291 4.78858C29.6346 5.02043 29.547 5.09207 29.324 5.08659C28.5119 5.0652 28.6333 5.20102 28.6293 4.38709C28.6228 3.07714 28.6268 1.76769 28.6278 0.457739C28.6278 0.123411 28.6472 0.102018 28.9787 0.104505C29.7336 0.110475 29.6147 0.0144554 29.6246 0.749779C29.6291 1.07316 29.6346 1.39654 29.6221 1.71943C29.6142 1.92988 29.7003 1.99505 29.9008 1.98908C30.2572 1.97814 30.614 1.97664 30.9703 1.98958C31.1838 1.99704 31.2669 1.92689 31.2609 1.706C31.248 1.25873 31.2634 0.810475 31.255 0.363212C31.2515 0.168187 31.3286 0.0915698 31.5192 0.102018C31.668 0.110475 31.8183 0.11147 31.9666 0.102018C32.1861 0.0870922 32.2573 0.189082 32.2558 0.398037C32.2493 1.13585 32.2533 1.87366 32.2533 2.61147Z" fill="#0D0D0D"/>
<path d="M26.129 10.2548C26.129 9.26074 26.1345 8.26621 26.125 7.27218C26.123 7.03736 26.1977 6.94034 26.4391 6.95626C26.6784 6.97218 26.9198 6.96721 27.1597 6.95776C27.3523 6.95029 27.4269 7.02741 27.4244 7.21995C27.418 7.75825 27.4224 8.29706 27.4224 8.83537C27.4224 9.87915 27.4284 10.9234 27.418 11.9672C27.4155 12.212 27.4842 12.3105 27.7409 12.2995C28.146 12.2821 28.5531 12.3 28.9587 12.2936C29.1468 12.2906 29.2324 12.3583 29.2245 12.5548C29.2145 12.803 29.217 13.0518 29.2235 13.3C29.228 13.4697 29.1543 13.5384 28.9866 13.5374C28.1162 13.5344 27.2463 13.5329 26.3759 13.5393C26.1708 13.5408 26.1255 13.4418 26.1265 13.2627C26.131 12.3597 26.1285 11.4568 26.1285 10.5538C26.1285 10.4543 26.1285 10.3548 26.1285 10.2558L26.129 10.2548Z" fill="#0D0D0D"/>
<path d="M33.3484 2.56659C33.3484 1.8452 33.3554 1.12381 33.3444 0.402912C33.341 0.174554 33.4201 0.0974397 33.646 0.100425C34.3592 0.110375 35.0723 0.109878 35.7855 0.100425C36.0114 0.0974397 36.0955 0.181022 36.0915 0.405897C36.0781 1.16311 36.1652 1.04321 35.468 1.05316C35.1614 1.05764 34.8539 1.06062 34.5473 1.05217C34.3627 1.04719 34.299 1.12431 34.3019 1.30341C34.3139 2.04669 34.2193 1.9248 34.9101 1.93525C35.2087 1.93973 35.5073 1.94371 35.8059 1.93376C36.003 1.92729 36.0945 1.98998 36.0915 2.20142C36.0806 2.96361 36.1597 2.83575 35.4655 2.8462C35.1589 2.85067 34.8519 2.85167 34.5448 2.8462C34.3811 2.84321 34.2975 2.89744 34.3024 3.07455C34.3099 3.33973 34.3119 3.6054 34.3014 3.87008C34.294 4.06212 34.3661 4.13824 34.5612 4.13376C34.9758 4.1248 35.3908 4.14023 35.8049 4.12829C36.0248 4.12182 36.0955 4.20838 36.0915 4.42032C36.0761 5.20042 36.1776 5.07306 35.4326 5.08102C34.8439 5.08749 34.2547 5.07157 33.6664 5.08749C33.4091 5.09445 33.3395 4.99993 33.3439 4.75515C33.3569 4.0258 33.3484 3.29595 33.3484 2.56659Z" fill="#0D0D0D"/>
<path d="M26.129 18.6115C26.129 17.617 26.1345 16.6225 26.1251 15.6284C26.1226 15.3891 26.2052 15.3006 26.4426 15.3165C26.6735 15.3319 26.9074 15.3304 27.1383 15.317C27.3602 15.3041 27.4304 15.4001 27.4235 15.61C27.4125 15.9329 27.421 16.2563 27.421 16.5797C27.421 18.2369 27.421 19.8946 27.421 21.5518C27.421 21.8906 27.4145 21.8956 27.0706 21.8971C26.8467 21.8981 26.6227 21.8881 26.3993 21.8996C26.1898 21.9105 26.1256 21.819 26.127 21.62C26.133 20.6175 26.1295 19.6145 26.1295 18.612L26.129 18.6115Z" fill="#0D0D0D"/>
<path d="M45.3936 10.2363C45.3936 9.29207 45.3936 8.34779 45.3936 7.40302C45.3936 7.10849 45.5451 6.96122 45.848 6.96122C46.055 6.96122 46.2626 6.96471 46.4696 6.96122C46.6149 6.95923 46.6841 7.0259 46.6821 7.17018C46.6811 7.27764 46.6836 7.3856 46.6836 7.49307C46.6836 9.38162 46.6836 11.2707 46.6836 13.1592C46.6836 13.5229 46.6721 13.5329 46.3044 13.5344C46.1053 13.5349 45.9057 13.5239 45.7077 13.5368C45.4678 13.5528 45.3887 13.4518 45.3907 13.2174C45.3991 12.2234 45.3941 11.2294 45.3941 10.2354L45.3936 10.2363Z" fill="#0D0D0D"/>
<path d="M43.1082 18.6294C43.1082 19.6155 43.1022 20.601 43.1127 21.5871C43.1152 21.8274 43.0331 21.915 42.7967 21.8995C42.5737 21.8846 42.3488 21.8876 42.1258 21.8985C41.9193 21.9085 41.8511 21.8229 41.8526 21.6204C41.8591 20.5518 41.8556 19.4831 41.8556 18.4145C41.8556 17.4866 41.8621 16.5587 41.8516 15.6309C41.8491 15.3916 41.9307 15.3025 42.1676 15.3184C42.3906 15.3334 42.6155 15.3304 42.8385 15.3194C43.0455 15.309 43.1132 15.3961 43.1117 15.5975C43.1052 16.608 43.1087 17.6189 43.1087 18.6294H43.1082Z" fill="#0D0D0D"/>
<path d="M26.1338 3.0387C26.1338 2.47552 26.1274 1.91233 26.1373 1.34915C26.1408 1.14019 26.0806 1.05412 25.8566 1.05363C25.1903 1.05263 25.2425 1.18696 25.2435 0.42875C25.2435 0.130243 25.2709 0.104372 25.572 0.103874C26.2926 0.102382 27.0137 0.108352 27.7343 0.100392C27.9398 0.0984018 28.0319 0.155118 28.0329 0.379994C28.0364 1.03721 28.0448 1.04517 27.3894 1.05363C27.171 1.05661 27.1277 1.15164 27.1286 1.34218C27.1336 2.47701 27.1316 3.61134 27.1306 4.74616C27.1306 5.07353 27.1217 5.08547 26.7977 5.08198C26.0333 5.07353 26.1428 5.18746 26.1348 4.42975C26.1303 3.96606 26.1338 3.50238 26.1338 3.0382V3.0387Z" fill="#0D0D0D"/>
</g>
<defs>
<clipPath id="clip0_1397_7597">
<rect width="65" height="22" fill="white"/>
</clipPath>
</defs>
</svg>
