<svg width="55" height="22" viewBox="0 0 55 22" fill="none" xmlns="http://www.w3.org/2000/svg">
<g clip-path="url(#clip0_1393_7923)">
<path d="M10.9336 13.1945H12.2223V9.60756L13.7809 4.7695H12.526L11.6488 7.86433H11.6252L10.7447 4.7695H9.375L10.9336 9.60756V13.1945ZM16.0176 13.3158C16.2844 13.3343 16.5519 13.2945 16.8026 13.1989C17.0533 13.1033 17.2813 12.9542 17.4717 12.7613C17.8291 12.3264 18.0092 11.7664 17.9743 11.1983V6.76919C18.0099 6.19889 17.8298 5.63649 17.4717 5.19924C17.2808 5.00711 17.0527 4.85842 16.8022 4.76289C16.5516 4.66735 16.2843 4.62709 16.0176 4.64474C15.7515 4.62693 15.4846 4.66712 15.2346 4.76268C14.9846 4.85824 14.7571 5.00702 14.567 5.19924C14.2072 5.63437 14.0258 6.19594 14.0609 6.76572V11.1983C14.0256 11.767 14.2071 12.3276 14.567 12.7613C14.7567 12.9541 14.9842 13.1032 15.2343 13.1988C15.4844 13.2944 15.7514 13.3343 16.0176 13.3158ZM15.3429 6.68254C15.3429 6.1315 15.5656 5.85425 16.0176 5.85425C16.4697 5.85425 16.6924 6.1315 16.6924 6.68254V11.2815C16.6924 11.836 16.4675 12.1132 16.0176 12.1132C15.5678 12.1132 15.3429 11.836 15.3429 11.2815V6.68254ZM20.7171 13.3158C20.9797 13.3338 21.2429 13.2942 21.4895 13.1998C21.7361 13.1054 21.9604 12.9583 22.1475 12.7682C22.4987 12.3277 22.6736 11.7664 22.6367 11.1983V4.7695H21.3952V11.2919C21.416 11.5152 21.3559 11.7385 21.2265 11.9192C21.1638 11.9854 21.088 12.037 21.0041 12.0705C20.9203 12.1039 20.8305 12.1185 20.7407 12.1132C20.6486 12.1213 20.556 12.1081 20.4696 12.0745C20.3832 12.0409 20.3052 11.9878 20.2414 11.9192C20.1108 11.739 20.0495 11.5156 20.0694 11.2919V4.7695H18.7941V11.1983C18.7585 11.7668 18.9346 12.3281 19.2867 12.7682C19.4737 12.9585 19.6979 13.1057 19.9445 13.2001C20.1911 13.2945 20.4545 13.334 20.7171 13.3158ZM24.8396 9.5833H25.3018C25.4164 9.5707 25.5323 9.58471 25.6409 9.6243C25.7495 9.6639 25.8481 9.72805 25.9293 9.81203C26.0735 10.0538 26.1374 10.3372 26.1115 10.6195V12.1583C26.1006 12.38 26.1029 12.6022 26.1182 12.8237C26.1353 12.9552 26.167 13.0843 26.2127 13.2084H27.525C27.4623 13.0694 27.4224 12.9206 27.407 12.7682C27.3886 12.5748 27.3807 12.3804 27.3833 12.186V10.6923C27.3991 10.2856 27.3336 9.87989 27.191 9.50012C27.1294 9.35581 27.0366 9.22778 26.9197 9.12571C26.8028 9.02365 26.6649 8.95021 26.5163 8.91096V8.8867C27.0786 8.65566 27.3597 8.10231 27.3597 7.22665V6.7068C27.4019 6.17664 27.2382 5.65086 26.9043 5.2443C26.7045 5.07032 26.4732 4.93877 26.2236 4.85727C25.974 4.77577 25.7111 4.74594 25.4503 4.7695H23.5509V13.1945H24.8396V9.5833ZM24.8396 5.97208H25.4266C25.5196 5.96452 25.6129 5.97902 25.6995 6.01448C25.7861 6.04994 25.8636 6.1054 25.9259 6.17656C26.0457 6.37428 26.1001 6.60644 26.0811 6.8385V7.49004C26.1064 7.73791 26.0375 7.98622 25.8888 8.18317C25.8107 8.25598 25.719 8.31166 25.6192 8.34682C25.5194 8.38198 25.4137 8.39587 25.3086 8.38765H24.8396V5.97208ZM29.9507 13.3158C30.2159 13.3346 30.482 13.2949 30.7311 13.1992C30.9801 13.1036 31.2064 12.9543 31.3946 12.7613C31.7535 12.3179 31.9323 11.7494 31.8939 11.174C31.9048 10.6934 31.8006 10.2173 31.5902 9.78777C31.2962 9.28787 30.9194 8.84454 30.4769 8.47775C30.1444 8.19889 29.8505 7.87475 29.6032 7.5143C29.4415 7.25937 29.3538 6.96249 29.3502 6.65828C29.3502 6.12111 29.5661 5.85425 29.9945 5.85425C30.0837 5.84801 30.1731 5.86254 30.256 5.89674C30.339 5.93095 30.4133 5.98395 30.4736 6.05179C30.5993 6.23548 30.6578 6.45885 30.6389 6.68254V7.11575H31.8568V6.76919C31.8963 6.20524 31.7317 5.64617 31.3946 5.19924C31.214 5.00881 30.9952 4.86115 30.7534 4.76657C30.5116 4.672 30.2526 4.63278 29.9945 4.65167C29.7324 4.63356 29.4696 4.67303 29.2235 4.76745C28.9775 4.86186 28.7538 5.00907 28.5675 5.19924C28.2161 5.63167 28.0397 6.18624 28.0749 6.74839C28.0672 7.20825 28.1765 7.66222 28.3921 8.06534C28.6916 8.55607 29.0677 8.99281 29.5053 9.35803C29.8353 9.6397 30.1239 9.96887 30.3622 10.3353C30.5207 10.6187 30.6011 10.9409 30.595 11.2676C30.6142 11.4962 30.5545 11.7243 30.4263 11.9122C30.3625 11.9812 30.2847 12.0349 30.1984 12.0696C30.1121 12.1043 30.0195 12.1192 29.927 12.1132C29.4772 12.1132 29.2523 11.8394 29.2523 11.2919V10.7166H28.0513V11.1983C28.0146 11.7647 28.1855 12.3247 28.5304 12.7682C28.7148 12.9592 28.9371 13.1069 29.1823 13.2014C29.4274 13.296 29.6895 13.335 29.9507 13.3158ZM33.638 13.1945H34.9267V5.97208H36.2762V4.7695H32.292V5.97208H33.638V13.1945ZM38.7119 13.3158C38.9787 13.3343 39.2462 13.2945 39.4969 13.1989C39.7475 13.1033 39.9756 12.9542 40.166 12.7613C40.5234 12.3264 40.7035 11.7664 40.6686 11.1983V6.76919C40.7042 6.19889 40.5241 5.63649 40.166 5.19924C39.7623 4.84142 39.2468 4.64456 38.7136 4.64456C38.1804 4.64456 37.665 4.84142 37.2613 5.19924C36.9015 5.63437 36.7201 6.19594 36.7552 6.76572V11.1983C36.7199 11.767 36.9014 12.3276 37.2613 12.7613C37.451 12.9541 37.6785 13.1032 37.9286 13.1988C38.1787 13.2944 38.4457 13.3343 38.7119 13.3158ZM38.0372 6.68254C38.0372 6.1315 38.2599 5.85425 38.7119 5.85425C39.164 5.85425 39.3867 6.1315 39.3867 6.68254V11.2815C39.3867 11.836 39.1617 12.1132 38.7119 12.1132C38.2621 12.1132 38.0372 11.836 38.0372 11.2815V6.68254ZM42.8244 9.5833H43.2697C43.3843 9.5707 43.5002 9.58471 43.6088 9.6243C43.7174 9.6639 43.8159 9.72805 43.8972 9.81203C44.0414 10.0538 44.1053 10.3372 44.0794 10.6195V12.1583C44.0747 12.3758 44.0825 12.5933 44.103 12.8098C44.12 12.9413 44.1517 13.0704 44.1974 13.1945H45.5064C45.446 13.0549 45.4072 12.9064 45.3917 12.7544C45.3734 12.5609 45.3655 12.3665 45.3681 12.1721V10.6923C45.3838 10.2856 45.3184 9.87989 45.1758 9.50012C45.1141 9.35581 45.0214 9.22778 44.9045 9.12571C44.7876 9.02365 44.6496 8.95021 44.5011 8.91096V8.8867C45.0656 8.65566 45.3467 8.10231 45.3445 7.22665V6.7068C45.3867 6.17664 45.2229 5.65086 44.889 5.2443C44.6893 5.07032 44.4579 4.93877 44.2083 4.85727C43.9587 4.77577 43.6959 4.74594 43.435 4.7695H41.5255V13.1945H42.8142L42.8244 9.5833ZM42.8244 5.97208H43.4114C43.5038 5.96426 43.5968 5.97866 43.6828 6.01415C43.7689 6.04964 43.8458 6.10525 43.9073 6.17656C44.0311 6.37263 44.0869 6.60582 44.0659 6.8385V7.49004C44.0911 7.73791 44.0222 7.98622 43.8736 8.18317C43.7954 8.25598 43.7037 8.31166 43.6039 8.34682C43.5042 8.38198 43.3985 8.39587 43.2933 8.38765H42.8244V5.97208ZM47.2539 13.1945H48.5426V9.60756L50.1012 4.7695H48.8463L47.9691 7.86433H47.9455L47.065 4.7695H45.6953L47.2539 9.60756V13.1945Z" fill="#9D9D9C"/>
<path d="M53.6463 0H4.42188V17.8585H54.9957V0H53.6463ZM53.6463 16.4757H5.74096V1.38626H53.6463V16.4757Z" fill="#9D9D9C"/>
<path d="M49.8013 17.6389C49.6054 17.6363 49.4127 17.5877 49.2379 17.4968V20.6159H1.34944V5.52298H5.1009C5.009 5.2978 4.97471 5.05221 5.00128 4.80957C5.02785 4.56692 5.11441 4.3353 5.25271 4.13672H0V21.9987H50.5839V17.4934C50.3333 17.5882 50.0684 17.6375 49.8013 17.6389Z" fill="#9D9D9C"/>
<path d="M6.01266 16.9891L1.05683 21.6989L0.105469 20.7216L5.06131 16.0118L6.01266 16.9891ZM5.3683 0.981222L0.982609 5.12615L0.03125 4.14883L4.41695 0.00390625L5.3683 0.981222Z" fill="#9D9D9C"/>
</g>
<defs>
<clipPath id="clip0_1393_7923">
<rect width="55" height="22" fill="white"/>
</clipPath>
</defs>
</svg>
