<svg width="58" height="50" viewBox="0 0 58 50" fill="none" xmlns="http://www.w3.org/2000/svg">
<path d="M27.3992 0.175905C27.2213 0.29936 27.0571 0.669725 26.9476 1.17726C26.4414 3.45432 25.1005 6.29379 23.0892 9.38017C20.8179 12.8918 20.2021 14.5104 20.1885 17.0618C20.1611 19.2566 20.7221 20.8478 22.0766 22.5213C23.3218 24.0576 24.4985 24.6475 25.0594 24.0165C25.5247 23.5089 25.3605 23.1111 24.2385 21.9589C23.0481 20.7518 22.5282 19.915 22.1998 18.6256C21.9125 17.4871 22.0082 15.9919 22.4871 14.5653C22.9113 13.317 23.2944 12.6174 24.8268 10.2718C26.4003 7.87127 27.4539 5.77254 28.357 3.20741C28.4664 2.89192 28.3159 2.72731 29.9715 4.89463C34.8562 11.2594 36.6623 16.9384 34.8972 20.354C34.391 21.3416 33.7889 22.0549 32.9132 22.6996C32.2154 23.2209 30.9156 23.989 30.724 23.989C30.6967 23.989 30.7924 23.4541 30.9293 22.7819C31.6408 19.2429 31.5313 12.9604 30.7514 12.1785C30.3683 11.7944 29.5884 11.8356 29.3147 12.2608C29.1232 12.5626 29.1232 12.6997 29.2874 13.5914C29.3968 14.2361 29.4652 15.6352 29.4652 17.5419C29.4516 20.0385 29.4105 20.7243 29.1505 22.0275C28.6169 24.7023 27.577 27.3223 26.2635 29.2702C25.6478 30.1892 25.5657 30.7105 25.9762 31.122C26.3046 31.4512 26.7561 31.4786 27.1666 31.1906C27.5907 30.8888 28.8222 28.8998 29.4242 27.5555C29.6978 26.9108 30.0125 26.3484 30.1083 26.3072C30.2041 26.2524 30.724 26.0466 31.244 25.8409C34.432 24.62 36.6623 22.1921 37.278 19.3114C37.5516 18.022 37.4559 15.7038 37.0728 14.2086C36.2244 10.9577 34.1173 7.04824 31.1208 3.17998C28.7948 0.189621 28.138 -0.34535 27.3992 0.175905Z" fill="#B01C1A"/>
<path d="M0.978239 15.9635C0.731953 16.0733 0.403571 16.3613 0.23938 16.6082C-0.0342715 17.0472 -0.0342715 17.1569 0.047824 20.8743C0.129919 24.5505 0.143602 24.7426 0.540397 26.1417C1.48449 29.5162 3.31796 33.549 4.782 35.5106C5.21984 36.0867 6.01343 36.9235 6.56073 37.3624C7.91531 38.4598 11.2402 40.6957 14.0998 42.4241C17.5342 44.5091 17.9583 45.0852 17.6163 47.3211C17.4247 48.5831 17.5478 49.0358 18.1225 49.173C19.1213 49.4336 19.5865 48.4322 19.5044 46.21C19.4224 43.8507 18.793 43.0139 15.6596 41.1209C12.1432 38.9811 8.51734 36.512 7.49115 35.5517C6.95753 35.0442 6.24603 34.2486 5.91765 33.7822C4.80936 32.2322 2.98958 27.9936 2.3465 25.497C2.08653 24.4408 1.99075 23.6315 1.89497 21.3133C1.73078 17.6782 1.73078 17.9251 1.89497 18.0211C2.10021 18.1446 2.67488 20.1061 3.27691 22.685C3.57793 23.9607 3.97472 25.3324 4.1526 25.7165C4.57676 26.567 7.0533 29.3241 8.59943 30.641C10.8707 32.5751 12.2527 33.3844 13.5662 33.5353C14.8934 33.6725 15.988 32.7671 15.988 31.4914C15.988 30.6135 15.5228 29.5848 14.2777 27.6781C12.4716 24.9209 12.1295 24.0293 12.7453 23.6589C12.9505 23.5354 13.0463 23.5766 13.2652 23.8509C14.5103 25.3873 16.7132 27.8564 18.533 29.7494C21.6389 32.9866 22.9114 34.8385 24.0744 37.8425C25.3195 40.9975 25.7848 43.9193 25.5521 46.7999C25.388 48.638 25.4701 49.0221 26.0447 49.173C26.5373 49.2964 27.0436 49.0358 27.2214 48.5831C27.3035 48.3636 27.413 47.184 27.4403 45.9357C27.5088 44.029 27.4677 43.398 27.2214 41.9714C26.6604 38.693 25.3606 35.4832 23.3493 32.4791C22.4462 31.1074 21.7073 30.2432 19.6139 28.1033C18.1909 26.6355 16.4259 24.7014 15.7144 23.8098C14.2093 21.9305 13.662 21.5602 12.5947 21.7111C11.8559 21.8071 11.4044 22.0951 10.9665 22.7536C10.7066 23.1239 10.6518 23.3983 10.6518 24.1802C10.6518 25.3873 11.0486 26.2789 12.6495 28.7206C13.2515 29.6259 13.8262 30.5724 13.922 30.8056C14.1272 31.3131 14.0451 31.6698 13.7167 31.6698C13.3336 31.6698 12.1295 30.9976 11.0623 30.1883C9.66668 29.1184 6.39654 25.7714 5.9587 24.962C5.73978 24.578 5.39771 23.4257 5.11038 22.1912C4.12523 17.8428 3.49583 16.4025 2.45596 15.991C1.77183 15.7166 1.55291 15.7029 0.978239 15.9635Z" fill="#B01C1A"/>
<path d="M54.7204 15.99C53.7899 16.4563 53.0921 18.1024 52.2712 21.7923C51.546 24.9747 51.4502 25.1531 49.0831 27.5536C47.236 29.4191 45.4709 30.832 44.3353 31.3533C42.7344 32.094 42.8439 31.3944 44.7594 28.5275C46.1551 26.4288 46.675 25.2765 46.675 24.2203C46.675 22.8074 45.9772 21.9021 44.7868 21.71C43.7333 21.5592 43.1039 21.9021 42.0229 23.2052C40.6273 24.9199 38.1781 27.6222 36.7141 29.0625C34.1691 31.559 32.3493 34.4945 31.0358 38.1844C30.1875 40.585 29.9275 42.0527 29.8591 44.7687C29.7907 47.7042 29.9412 48.7604 30.5022 49.0759C30.7074 49.1857 30.9948 49.2268 31.2137 49.1719C31.8294 49.0211 31.8978 48.7056 31.7199 46.8674C31.3368 42.7934 32.5272 38.349 35.1543 34.1104C36.2078 32.3958 36.933 31.5316 39.3001 29.1585C40.5178 27.9377 42.1187 26.1819 42.8713 25.2491C43.6238 24.33 44.2942 23.5756 44.3763 23.5756C44.6226 23.5756 44.8552 23.8774 44.8552 24.1929C44.8552 24.6592 44.2806 25.7429 43.0218 27.6633C41.2978 30.2696 40.9694 31.3807 41.544 32.4918C41.8177 33.0268 42.7618 33.5892 43.3638 33.5892C45.1426 33.5892 48.2485 31.4218 51.3681 27.9788C52.1617 27.1146 52.9416 26.0996 53.1332 25.7155C53.3111 25.3314 53.7489 23.8088 54.091 22.341C54.734 19.6387 55.1445 18.2807 55.3908 18.0338C55.4729 17.9515 55.5003 18.6099 55.4455 19.9542C55.2813 24.1791 55.1993 24.8513 54.5151 26.9226C53.8036 29.0625 52.6817 31.6276 51.8197 33.0953C50.8619 34.714 49.2747 36.168 46.2919 38.1433C44.8689 39.0898 42.7618 40.4341 41.6125 41.1199C38.4381 43.0403 37.7266 44.028 37.754 46.4559C37.7676 48.5684 38.2055 49.4189 39.1633 49.1719C39.7379 49.0348 39.8748 48.5684 39.6695 47.3338C39.3138 45.1802 39.7927 44.4806 42.8439 42.6425C48.4948 39.2132 51.2997 37.1008 52.7364 35.1941C53.872 33.6715 55.6234 29.7758 56.6496 26.4562C57.0874 25.0433 57.279 22.7937 57.2927 18.9117C57.3064 16.7993 57.1695 16.3878 56.3075 15.99C55.7055 15.7019 55.3087 15.7019 54.7204 15.99Z" fill="#B01C1A"/>
</svg>
