<svg width="110" height="26" viewBox="0 0 110 26" fill="none" xmlns="http://www.w3.org/2000/svg">
<g clip-path="url(#clip0_1393_4754)">
<path fill-rule="evenodd" clip-rule="evenodd" d="M20.379 23.7224C20.171 24.5044 20.1424 24.5832 19.9313 24.5832H17.5595V24.7362H22.9316V24.5832H20.4726C20.3136 24.5832 20.3402 24.4771 20.5336 23.7624L22.186 17.7386H28.7272L30.7243 24.5832H28.067V24.7362H37.006V24.5832H34.227L26.814 0.445801H26.769L20.379 23.7224ZM25.3485 6.20164L28.6765 17.5862H22.2328L25.3485 6.20164ZM97.3711 12.6932H99.416C101.228 12.6932 103.899 13.4257 103.899 16.4019V21.7914C103.899 23.9967 105.196 25.3855 107.482 25.3855C109.886 25.3855 109.849 23.107 109.849 21.4633V19.7311H109.686V21.4633C109.686 23.333 109.45 24.9565 108.278 24.9565C107.239 24.9565 107.015 24.3516 107.015 21.815V16.4019C107.015 13.8972 104.853 12.9792 101.513 12.6159C105.673 12.1514 107.239 9.65772 107.239 6.90024C107.239 2.8215 105.233 1.10702 100.066 1.10702L91.8766 1.10538V1.25865H94.027C94.1822 1.25865 94.2557 1.29954 94.2557 1.38225V24.4587C94.2557 24.5418 94.1822 24.5832 94.027 24.5832H91.8766V24.7362H99.4078V24.5832H97.5988C97.4433 24.5832 97.3711 24.5418 97.3711 24.4587V12.6932ZM97.3711 1.26005H99.5785C102.979 1.26005 103.94 3.68809 103.94 6.90024C103.94 9.90772 102.979 12.5402 99.5785 12.5402H97.3711V1.26005ZM42.5645 24.4626C42.5379 24.5175 42.568 24.5832 42.6937 24.5832L48.5615 24.5846C50.368 24.5846 52.6998 22.0762 52.6998 13.9932V13.1516H52.863V24.7372H38.8528L49.4669 1.37804C49.4927 1.32384 49.4624 1.25865 49.337 1.25865L43.107 1.26005C41.4718 1.26005 39.0972 4.06286 39.0972 11.8519V12.6932H38.9342V1.10702H53.189L42.5645 24.4626ZM7.87764 1.26005C11.2785 1.26005 12.6632 3.68809 12.6632 6.90024C12.6632 9.90772 11.2785 12.3105 7.87764 12.3105H6.33023V1.26005H7.87764ZM0.835938 1.10538V1.25865H2.98657C3.14211 1.25865 3.21478 1.29954 3.21478 1.38225V24.4587C3.21478 24.5418 3.14211 24.5832 2.98657 24.5832H0.835938V24.7362L8.8554 24.7372C14.0207 24.7372 16.7766 22.7171 16.7766 18.6395C16.7766 15.8157 15.1478 12.9416 10.0064 12.3692C14.3738 11.9858 15.8807 9.41029 15.8807 6.90024C15.8807 3.22945 13.5322 1.10702 8.36664 1.10702L0.835938 1.10538ZM7.87764 12.4636C11.7125 12.4636 13.2336 14.9173 13.2336 18.6395C13.2336 21.8507 11.8758 24.5846 8.69215 24.5846L6.55844 24.5832C6.4029 24.5832 6.33023 24.5418 6.33023 24.4587V12.4617L7.87764 12.4636ZM57.3606 23.7224C57.1516 24.5044 57.123 24.5832 56.9125 24.5832H54.5406V24.7362H59.9132V24.5832H57.4535C57.2954 24.5832 57.3213 24.4771 57.5157 23.7624L59.1674 17.7386H65.7086L67.7062 24.5832H65.0479V24.7362H73.9876V24.5832H71.2076L63.7951 0.445801H63.7496L57.3606 23.7224ZM62.3301 6.20164L65.6571 17.5862H59.2134L62.3301 6.20164Z" fill="#F9F5EC"/>
<path fill-rule="evenodd" clip-rule="evenodd" d="M75.2044 23.7224C74.9956 24.5044 74.968 24.5832 74.7572 24.5832H72.3848V24.7362H77.7572V24.5832H75.2977C75.1397 24.5832 75.1658 24.4771 75.3594 23.7624L77.0118 17.7386H83.5528L85.5502 24.5832H82.8921V24.7362H91.8316V24.5832H89.0526L81.6401 0.445801H81.5946L75.2044 23.7224ZM80.1746 6.20164L83.5021 17.5862H77.0576L80.1746 6.20164ZM69.456 3.55117C69.456 3.56052 69.4652 3.56402 69.4826 3.56402H69.8457V3.61846H68.6062V3.56402H68.9299C68.9481 3.56402 68.9561 3.56052 68.9561 3.55117V2.3729H67.7722V3.55117C67.7722 3.56052 67.7804 3.56402 67.7981 3.56402H68.1219V3.61846H66.8828V3.56402H67.2459C67.2636 3.56402 67.2718 3.56052 67.2718 3.55117V1.23903C67.2718 1.23061 67.2636 1.22664 67.2459 1.22664H66.8828V1.17197H68.1219V1.22664H67.7981C67.7804 1.22664 67.7722 1.23061 67.7722 1.23903V2.31893H68.9561V1.23903C68.9561 1.23061 68.9481 1.22664 68.9299 1.22664H68.6062V1.17197H69.8457V1.22664H69.4826C69.4652 1.22664 69.456 1.23061 69.456 1.23903V3.55117ZM72.8977 2.54697C72.7837 2.54697 72.7073 2.49744 72.7073 2.41403C72.7073 2.33856 72.7556 2.34113 72.7556 2.28575C72.7556 2.22968 72.7173 2.20398 72.6558 2.20398C72.5924 2.20398 72.4791 2.22384 72.3933 2.4687V3.55117C72.3933 3.56052 72.4013 3.56402 72.4192 3.56402H72.6416V3.61846H71.7692V3.56402H71.9909C72.0088 3.56402 72.0168 3.56052 72.0168 3.55117V2.21496C72.0168 2.20678 72.0088 2.20211 71.9909 2.20211H71.7692V2.14767H72.3823L72.3933 2.15818V2.38645C72.4587 2.19627 72.6001 2.11776 72.7663 2.11776C72.9686 2.11776 73.1 2.21753 73.1 2.37197C73.1 2.4694 73.0199 2.54697 72.8977 2.54697ZM76.1702 3.64814C76.4542 3.64814 76.6826 3.51893 76.8352 3.32103L76.7911 3.28786C76.6485 3.47734 76.4574 3.59463 76.1702 3.59463C76.0652 3.59463 75.9806 3.57594 75.9082 3.51566C75.7887 3.41496 75.7514 3.29697 75.7514 2.88342C75.7514 2.85281 75.7516 2.8444 75.7524 2.81636H76.8685L76.8795 2.80678C76.8795 2.52758 76.6744 2.11776 76.1702 2.11776C75.7048 2.11776 75.3552 2.46099 75.3552 2.88342C75.3552 3.30515 75.7048 3.64814 76.1702 3.64814ZM76.3773 2.25141C76.4629 2.34206 76.4907 2.48225 76.4975 2.76192H75.7534C75.7626 2.48225 75.8002 2.34206 75.9082 2.25141C75.9806 2.19089 76.0652 2.1722 76.1702 2.1722C76.261 2.1722 76.3198 2.19089 76.3773 2.25141ZM70.6172 3.58085C70.8168 3.58085 70.9462 3.44744 70.9462 3.31987V2.81075C70.8534 2.86099 70.7187 2.86099 70.5998 2.88108C70.4661 2.90398 70.3228 2.96963 70.3228 3.28645C70.3228 3.52828 70.4915 3.58085 70.6172 3.58085ZM70.1486 2.41683C70.1486 2.29463 70.3126 2.11776 70.6294 2.11776C71.0935 2.11776 71.3232 2.30982 71.3232 2.74113V3.44276C71.3232 3.52524 71.3653 3.55935 71.4265 3.55935C71.4981 3.55935 71.5556 3.50374 71.5711 3.4701L71.6091 3.50561C71.5857 3.56683 71.4668 3.64814 71.3155 3.64814C71.1438 3.64814 70.9927 3.55491 70.9661 3.42547C70.9113 3.5729 70.761 3.64814 70.5448 3.64814C70.1862 3.64814 69.9557 3.53085 69.9557 3.28645C69.9557 2.92571 70.3661 2.84183 70.5239 2.82991C70.7463 2.81239 70.9462 2.7986 70.9462 2.72477V2.5236C70.9462 2.27734 70.8317 2.1722 70.6294 2.1722C70.5281 2.1722 70.4651 2.21566 70.4651 2.31753C70.4651 2.37547 70.4972 2.39323 70.4972 2.44977C70.4972 2.51309 70.4437 2.57337 70.3168 2.57337C70.1961 2.57337 70.1486 2.49487 70.1486 2.41683ZM74.5158 2.24977C74.4484 2.19089 74.357 2.1722 74.2595 2.1722C74.1246 2.1722 74.0007 2.25585 73.9148 2.35024V3.37851C73.9666 3.50094 74.1166 3.59463 74.2595 3.59463C74.357 3.59463 74.4484 3.57641 74.5158 3.51683C74.627 3.418 74.7019 3.2458 74.7019 2.8923C74.7019 2.53856 74.627 2.34837 74.5158 2.24977ZM75.0849 2.8923C75.0849 3.27431 74.7393 3.64814 74.2595 3.64814C74.1126 3.64814 74.0007 3.56216 73.9148 3.47898V4.61846C73.9148 4.62641 73.9238 4.63038 73.9412 4.63038H74.1629V4.68482H73.2912V4.63038H73.5126C73.5303 4.63038 73.5385 4.62641 73.5385 4.61846V2.21496C73.5385 2.20678 73.5303 2.20211 73.5126 2.20211H73.2912V2.14767H73.9041L73.9148 2.15818V2.28926C74.0007 2.20538 74.1126 2.11776 74.2595 2.11776C74.7393 2.11776 75.0849 2.50982 75.0849 2.8923ZM79.8441 2.15888C79.8854 2.15888 79.9083 2.143 79.9128 2.12804H79.9758V2.49253H79.9128C79.9128 2.28061 79.7105 2.1722 79.5189 2.1722C79.3205 2.1722 79.2247 2.25585 79.2247 2.38786C79.2247 2.55772 79.3546 2.64417 79.6495 2.72174C79.9583 2.80328 80.1617 2.94487 80.1617 3.16589C80.1617 3.44557 79.921 3.64814 79.536 3.64814C79.3073 3.64814 79.2083 3.54814 79.0898 3.54814C79.0634 3.54729 79.0373 3.55402 79.015 3.56741C78.9928 3.58081 78.9754 3.60024 78.9651 3.62314H78.9014L78.9233 3.13832H78.987C78.9763 3.39253 79.2297 3.59463 79.536 3.59463C79.7675 3.59463 79.8986 3.4951 79.8986 3.30982C79.8986 3.12501 79.7436 3.05141 79.4606 2.97033C79.1839 2.89183 78.9913 2.78622 78.9913 2.55772C78.9913 2.28692 79.2707 2.11776 79.5189 2.11776C79.6806 2.11776 79.6958 2.15888 79.8441 2.15888ZM78.6941 1.6479C78.6941 1.54931 78.7832 1.46893 78.8932 1.46893C79.0124 1.46893 79.1008 1.55024 79.1008 1.6694C79.1008 1.84533 78.9315 2.05188 78.6994 2.18295L78.6623 2.1437C78.83 2.05258 78.9507 1.94019 79.0221 1.78061C78.9913 1.81262 78.9485 1.82734 78.8932 1.82734C78.7832 1.82734 78.6941 1.74744 78.6941 1.6479ZM78.1907 2.54697C78.0772 2.54697 78.0003 2.49744 78.0003 2.41403C78.0003 2.33856 78.0488 2.34113 78.0488 2.28575C78.0488 2.22968 78.01 2.20398 77.9483 2.20398C77.8851 2.20398 77.7716 2.22384 77.6863 2.4687V3.55117C77.6863 3.56052 77.6935 3.56402 77.7114 3.56402H77.9336V3.61846H77.0611V3.56402H77.2838C77.3013 3.56402 77.3097 3.56052 77.3097 3.55117V2.21496C77.3097 2.20678 77.3013 2.20211 77.2838 2.20211H77.0611V2.14767H77.6748L77.6863 2.15818V2.38645C77.7522 2.19627 77.8928 2.11776 78.0603 2.11776C78.2606 2.11776 78.3938 2.21753 78.3938 2.37197C78.3938 2.4694 78.3121 2.54697 78.1907 2.54697Z" fill="#F9F5EC"/>
</g>
<defs>
<clipPath id="clip0_1393_4754">
<rect width="109" height="25" fill="white" transform="translate(0.835938 0.387207)"/>
</clipPath>
</defs>
</svg>
