<svg width="110" height="26" viewBox="0 0 110 26" fill="none" xmlns="http://www.w3.org/2000/svg">
<g clip-path="url(#clip0_1393_4721)">
<path fill-rule="evenodd" clip-rule="evenodd" d="M7.78139 21.2989C10.2033 21.2989 10.4611 22.2822 10.4611 23.4322H5.25413C5.25413 22.3489 5.98575 22.263 7.12858 22.263V22.1505H3.15608V22.263C4.29891 22.263 5.07679 22.3489 5.07679 23.4322H0.17648C0.17648 22.2822 0.366667 21.3772 2.84252 21.3772V21.2655H0V25.3872H0.17648V24.6472H10.4603V25.3872H10.6376V21.1864H7.78139V21.2989ZM7.78139 0.908874C10.2033 0.908874 10.4611 1.89304 10.4611 3.04221H5.25413C5.25413 1.95887 5.98575 1.87387 7.12858 1.87387V1.76137H3.15608V1.87387C4.29891 1.87387 5.07679 1.95887 5.07679 3.04221H0.17648C0.17648 1.89304 0.366667 0.98804 2.84252 0.98804V0.87554H0V4.99804H0.17648V4.25804H10.4603V4.99804H10.6376V0.797207H7.78139V0.908874ZM0.17648 16.6705V15.9297H0V18.6247H0.17648V17.8855H10.4603V18.6247H10.6376V14.4247H7.78139V14.5364C10.2033 14.5364 10.4611 15.5197 10.4611 16.6697H0.0950935H0.17648V16.6705ZM0.17648 9.80554V9.06554H0V11.7597H0.17648V11.0205H10.4603V11.7605H10.6376V7.55887H7.78139V7.67054C10.2033 7.67054 10.4611 8.65387 10.4611 9.80387H0.0950935H0.17648V9.80554ZM27.5248 21.7172C25.0833 23.868 22.4669 24.7722 18.5167 24.7722H13.5872V0.797207H18.5347C22.4669 0.797207 25.1612 1.73137 27.5797 3.87054C30.1086 6.09887 31.4931 9.26221 31.4931 12.803C31.4931 16.343 30.1035 19.4455 27.524 21.7172H27.5248ZM15.747 2.77387V22.8139H18.6203C20.1735 22.8097 21.5562 22.5889 22.7856 22.1605C23.9975 21.7403 25.1107 21.0887 26.0599 20.2439C28.116 18.4272 29.2785 15.8039 29.2785 12.8022C29.2785 9.81887 28.1991 7.31221 26.3203 5.55054C25.3814 4.66971 24.2428 3.97554 22.9398 3.50137C21.6976 3.04887 20.3055 2.80971 18.7959 2.77637C18.7223 2.77471 18.5389 2.77387 18.4636 2.77387H15.7478H15.747ZM33.8113 24.7722V0.797207H46.1349V2.77387H35.983V10.6822H45.895V12.6405H35.983V22.8139H46.1349V24.7722H33.8113ZM82.0005 25.1822C75.0022 25.1822 69.2032 19.6005 69.2032 12.8297C69.2032 6.00387 75.0202 0.387207 82.0194 0.387207C88.9998 0.387207 94.7988 6.00554 94.7988 12.7939C94.7988 19.5647 88.9998 25.1822 82.0005 25.1822ZM82.0005 2.38554C76.1647 2.38554 71.4195 7.06804 71.4195 12.8297C71.4195 18.5022 76.2204 23.2014 82.0005 23.2014C87.8175 23.2014 92.5825 18.5014 92.5825 12.7939C92.5825 7.06804 87.8364 2.38554 82.0005 2.38554ZM96.746 0.743874H100.471C103.146 0.743874 104.698 1.11721 106.023 2.01887C107.609 3.09721 108.532 4.86554 108.612 6.98637C108.62 7.19471 108.619 7.40054 108.61 7.60721C108.502 10.1564 107.145 12.1647 105.022 13.0422C104.138 13.4072 103.468 13.5664 102.14 13.6922C102.1 13.6947 102.064 13.7055 102.025 13.7089L109.933 24.723H107.297L99.6228 13.8122H98.9041V24.723H96.746V0.74304V0.743874ZM98.9041 2.72054V11.9064H101.013C101.869 11.9014 102.632 11.798 103.298 11.6014C103.98 11.3989 104.561 11.0997 105.029 10.7064C105.968 9.91971 106.466 8.76054 106.466 7.26804C106.466 5.63221 105.806 4.29804 104.682 3.60554C104.193 3.30554 103.618 3.07887 102.937 2.93054C102.357 2.80554 101.701 2.74137 100.96 2.72387C100.892 2.72221 100.711 2.72054 100.639 2.72054H98.9041ZM60.6773 0.489707C63.3417 0.489707 65.6899 1.24554 67.9284 2.81221C68.0578 2.90221 68.2428 3.00304 68.4656 3.20137V5.96387C66.8558 4.36137 66.0754 3.84721 64.266 3.17221C63.0867 2.72472 61.8327 2.49278 60.5668 2.48804C54.9366 2.48804 50.1888 7.15137 50.0466 12.7322C50.0428 12.8966 50.0428 13.0611 50.0466 13.2255C50.1768 18.5339 54.6376 22.9872 60.0442 23.2747C60.3955 23.2939 60.751 23.2939 61.1117 23.2747C62.9793 23.1689 65.097 22.4097 66.7273 21.3597C67.1017 21.1189 67.5146 20.7855 67.9661 20.4047C68.0946 20.2964 68.2608 20.1855 68.4656 19.9697V22.6197C65.8938 24.4739 63.4882 25.2847 60.6405 25.2847C53.667 25.2847 47.8209 19.6664 47.8209 12.9322C47.8209 6.12554 53.6481 0.489707 60.6773 0.489707Z" fill="#F9F5EC"/>
</g>
<defs>
<clipPath id="clip0_1393_4721">
<rect width="110" height="25" fill="white" transform="translate(0 0.387207)"/>
</clipPath>
</defs>
</svg>
