<svg width="90" height="26" viewBox="0 0 90 26" fill="none" xmlns="http://www.w3.org/2000/svg">
<g clip-path="url(#clip0_1393_4714)">
<path fill-rule="evenodd" clip-rule="evenodd" d="M50.4221 7.70278C47.9324 7.21835 45.404 6.96615 43.6261 6.96615C37.3395 6.96615 35.0763 9.59839 35.0763 14.203V18.3697C35.0763 22.5427 36.6231 25.3872 44.0645 25.3872C46.0382 25.3872 48.4703 25.2074 50.8606 24.7293V21.0012C48.9901 21.3543 47.2508 21.4398 44.503 21.4398C41.5535 21.4398 39.8992 19.9991 39.8992 17.4925V15.0802C39.8992 12.4287 41.2096 10.9135 43.8453 10.9135C44.2829 10.9135 45.1409 10.9192 45.5991 11.0352V13.7644H50.4221V7.70278ZM30.2533 13.7644C30.2533 8.80607 27.9987 6.96615 23.8957 6.96615C22.3427 6.96615 20.8377 7.39927 19.0727 8.28194L18.6343 7.40475H12.2767V11.3521H14.9074V21.4398H12.7151V25.3872H21.9227V21.4398H19.7304V11.3613C20.7187 11.008 21.7069 10.9135 22.8362 10.9135C25.6662 10.9135 25.4303 13.3846 25.4303 15.0894V25.3872H32.884V21.4398H30.2533V13.7644ZM7.4537 21.4398H10.0844V25.3872H0V21.4398H2.63072V4.33458H0.438453V0.387207H9.64597V4.33458H7.4537V21.4398Z" fill="#F9F5EC"/>
<path fill-rule="evenodd" clip-rule="evenodd" d="M85.056 8.72054C85.056 6.8962 84.4041 4.33458 81.3292 4.33458C78.0958 4.33458 76.6005 7.47624 77.5977 10.9135H73.2827C72.9558 9.928 72.7605 7.18501 73.8058 5.00409C74.9589 2.59795 77.6797 0.387207 81.2744 0.387207H72.3409H64.8872L55.6797 14.203V20.1241H65.5449V16.1767H60.2834L67.9564 4.33458H68.1756V25.3872H72.3409C72.3409 17.6058 76.8703 15.0848 81.11 13.3054C83.4428 12.3262 85.056 11.1192 85.056 8.72054ZM89.4406 8.50124V21.4398H78.4792C78.4792 19.2469 80.5299 18.8734 83.083 17.4925C86.3613 15.7192 89.4406 13.5451 89.4406 8.50124Z" fill="#F9F5EC"/>
</g>
<defs>
<clipPath id="clip0_1393_4714">
<rect width="90" height="25" fill="white" transform="translate(0 0.387207)"/>
</clipPath>
</defs>
</svg>
