<svg width="256" height="26" viewBox="0 0 256 26" fill="none" xmlns="http://www.w3.org/2000/svg">
<g clip-path="url(#clip0_1393_4723)">
<path fill-rule="evenodd" clip-rule="evenodd" d="M41.0641 2.73486H23.6561L21.8516 9.06877H22.6378C25.287 4.90359 26.2184 3.68917 28.6344 3.68917H30.4681L26.9458 20.1166C26.5961 21.7366 26.1018 21.91 23.7727 22.1701L23.5978 23.0383H32.5053L32.7087 22.1701C30.6418 21.9676 30.0018 21.8233 30.3801 20.1166L33.8733 3.68917H36.0276C38.4436 3.68917 37.9304 4.90415 38.6584 9.06877H39.4156L41.0641 2.73486Z" fill="#F9F5EC"/>
<path fill-rule="evenodd" clip-rule="evenodd" d="M51.4931 21.1851C51.2314 21.1851 51.0857 21.0408 51.0857 20.7516C51.0857 20.52 51.2022 20.0283 51.3474 19.5081L53.6177 11.063C53.7051 10.6295 53.7925 10.1087 53.7925 9.73282C53.7925 8.40261 53.2685 7.59262 51.8131 7.59262C49.0182 7.59262 45.7582 11.4395 44.0405 14.7365L47.6794 0.391113H47.2428L42.1485 1.54792L42.0325 2.01053L43.8954 2.90722L38.8594 23.0372H42.0325L43.0805 18.9011C44.3611 13.7822 48.3782 9.6752 50.0377 9.6752C50.4159 9.6752 50.5617 9.8777 50.5617 10.2827C50.5617 10.5143 50.5034 10.8611 50.4159 11.2085L48.3199 18.7277C48.0291 19.7978 47.9125 20.5205 47.9125 21.1862C47.9125 22.4588 48.6405 23.3264 49.9211 23.3264C51.5222 23.3264 52.7159 22.0829 54.5497 19.4219L54.0548 19.046C52.8034 20.5787 52.0462 21.1862 51.4931 21.1862V21.1851Z" fill="#F9F5EC"/>
<path fill-rule="evenodd" clip-rule="evenodd" d="M67.2512 10.5153C67.2512 8.92445 66.1158 7.59424 63.6124 7.59424C58.8969 7.59424 54.9375 12.9157 54.9375 17.977C54.9375 21.1873 56.7421 23.3275 59.7404 23.3275C62.3021 23.3275 64.2815 21.8815 66.1444 19.1629L65.5912 18.7288C64.1649 20.5216 62.7969 21.4765 61.1375 21.4765C59.2455 21.4765 58.1101 20.0014 58.1101 17.3986C58.1101 17.0512 58.1392 16.6753 58.1684 16.3285C62.8255 15.4027 67.2506 14.1592 67.2506 10.5153H67.2512ZM63.1175 8.54855C64.1364 8.54855 64.5438 9.30036 64.5438 10.2261C64.5438 13.0605 62.4478 14.6514 58.2558 15.6348C58.7798 12.1353 60.7884 8.54911 63.1169 8.54911L63.1175 8.54855Z" fill="#F9F5EC"/>
<path fill-rule="evenodd" clip-rule="evenodd" d="M78.7766 5.65597C79.1263 4.03655 79.5046 3.86314 81.6583 3.60247L81.8623 2.73486H73.5075L73.3326 3.60247C75.2252 3.83405 75.7195 3.94984 75.3412 5.65597L72.2263 20.1166C71.9063 21.7366 71.4983 21.91 69.3446 22.1701L69.1406 23.0383H77.4955L77.6989 22.1701C75.7778 21.9391 75.2829 21.8233 75.6612 20.1166L78.7755 5.65597H78.7766Z" fill="#F9F5EC"/>
<path fill-rule="evenodd" clip-rule="evenodd" d="M91.665 21.1873C91.4032 21.1873 91.2575 21.0424 91.2575 20.7532C91.2575 20.5216 91.3741 20.0305 91.5192 19.5097L93.7895 11.0647C93.877 10.6311 93.9644 10.1103 93.9644 9.73444C93.9644 8.40367 93.4404 7.59424 91.985 7.59424C89.1907 7.59424 85.9301 11.4696 84.1838 14.7381L86.1341 7.59424H85.6975L80.6324 8.83775L80.545 9.27183L82.2627 10.2261L79.0312 23.0388H82.2044L83.2524 18.9027C84.533 13.7833 88.5501 9.67682 90.2095 9.67682C90.5878 9.67682 90.7335 9.87932 90.7335 10.2838C90.7335 10.5153 90.6461 10.8622 90.5587 11.2095L88.4918 18.7293C88.201 19.7994 88.0844 20.5222 88.0844 21.1878C88.0844 22.4604 88.8124 23.328 90.093 23.328C91.6941 23.328 92.8878 22.0845 94.7215 19.4235L94.2267 19.0476C92.9747 20.5803 92.2181 21.1878 91.665 21.1878V21.1873Z" fill="#F9F5EC"/>
<path fill-rule="evenodd" clip-rule="evenodd" d="M107.626 21.1856C107.364 21.1856 107.219 21.0413 107.219 20.7521C107.219 20.5205 107.335 20.0288 107.481 19.5086L112.226 0.391113H111.819L106.695 1.54792L106.608 2.01053L108.471 2.90722L107.044 8.54693C106.288 7.85273 105.56 7.59262 104.337 7.59262C99.7962 7.59262 95.1094 13.0589 95.1094 19.0169C95.1094 21.6773 96.2739 23.3264 98.2825 23.3264C100.669 23.3264 103.552 19.9136 105.269 16.2116C104.745 17.7443 104.104 20.3477 104.104 21.1862C104.104 22.4879 104.774 23.3264 106.055 23.3264C107.656 23.3264 108.849 22.0829 110.683 19.4219L110.188 19.046C108.937 20.5787 108.18 21.1862 107.627 21.1862L107.626 21.1856ZM99.6499 21.0989C98.6894 21.0989 98.3397 20.087 98.3397 18.6404C98.3397 14.1285 101.221 8.48875 104.628 8.48875C105.588 8.48875 106.403 9.03807 106.753 9.90623C105.064 16.7318 101.775 21.0989 99.6499 21.0989Z" fill="#F9F5EC"/>
<path fill-rule="evenodd" clip-rule="evenodd" d="M132.837 19.047C131.556 20.5797 130.799 21.1872 130.275 21.1872C130.014 21.1872 129.868 21.0429 129.868 20.7531C129.868 20.5215 129.984 20.0304 130.1 19.5096L132.255 10.7754L133.303 7.39111H132.604L130.217 8.80859C129.431 8.02769 128.528 7.59361 127.16 7.59361C122.59 7.59361 118.078 13.0599 118.078 19.0179C118.078 21.6783 119.214 23.3274 121.222 23.3274C123.609 23.3274 126.054 20.2323 127.801 16.5594C127.248 18.063 126.724 20.3481 126.724 21.1866C126.724 22.4878 127.422 23.3268 128.703 23.3268C130.275 23.3268 131.498 22.0833 133.332 19.4223L132.837 19.0464V19.047ZM122.59 21.1005C121.688 21.1005 121.28 20.2044 121.28 18.8154C121.28 13.9566 124.162 8.4903 127.422 8.4903C128.383 8.4903 129.14 9.03962 129.489 9.90722C127.713 16.791 124.715 21.0999 122.59 21.0999V21.1005Z" fill="#F9F5EC"/>
<path fill-rule="evenodd" clip-rule="evenodd" d="M145.962 21.1873C145.7 21.1873 145.554 21.0424 145.554 20.7532C145.554 20.5216 145.671 20.0305 145.816 19.5097L148.086 11.0647C148.174 10.6311 148.261 10.1103 148.261 9.73444C148.261 8.40367 147.737 7.59424 146.282 7.59424C143.488 7.59424 140.227 11.4696 138.481 14.7381L140.431 7.59424H139.994L134.929 8.83775L134.842 9.27183L136.56 10.2261L133.328 23.0388H136.501L137.549 18.9027C138.83 13.7833 142.847 9.67682 144.506 9.67682C144.885 9.67682 145.03 9.87932 145.03 10.2838C145.03 10.5153 144.943 10.8622 144.856 11.2095L142.789 18.7293C142.497 19.7994 142.381 20.5222 142.381 21.1878C142.381 22.4604 143.109 23.328 144.39 23.328C145.991 23.328 147.185 22.0845 149.018 19.4235L148.524 19.0476C147.272 20.5803 146.515 21.1878 145.962 21.1878V21.1873Z" fill="#F9F5EC"/>
<path fill-rule="evenodd" clip-rule="evenodd" d="M116.787 5.48095C117.951 5.48095 118.882 4.52664 118.882 3.39836C118.882 2.38644 118.067 1.54736 116.932 1.54736C115.738 1.54736 114.836 2.47258 114.836 3.62939C114.836 4.64187 115.651 5.48039 116.787 5.48039V5.48095Z" fill="#F9F5EC"/>
<path fill-rule="evenodd" clip-rule="evenodd" d="M114.63 21.1878C114.368 21.1878 114.222 21.0429 114.222 20.7537C114.222 20.5222 114.339 20.031 114.484 19.5102L117.482 7.59424H117.046L112.01 8.83775L111.893 9.27183L113.611 10.2261L111.456 18.7293C111.166 19.8285 111.078 20.5222 111.078 21.1878C111.078 22.4604 111.777 23.328 113.058 23.328C114.63 23.328 115.852 22.0845 117.686 19.4235L117.191 19.0476C115.911 20.5803 115.183 21.1878 114.63 21.1878Z" fill="#F9F5EC"/>
<path fill-rule="evenodd" clip-rule="evenodd" d="M18.5701 10.1792L10.3987 2.97156C9.32727 2.05081 10.033 0.532647 10.033 0.532647L9.86498 0.387207L8.15584 2.47874C7.19584 3.63499 7.36441 5.37467 8.51069 6.35807L16.6827 13.5657C17.7536 14.4865 17.0484 16.0046 17.0484 16.0046L17.2164 16.1506L18.9256 14.0591C19.8856 12.9023 19.717 11.1632 18.5707 10.1792H18.5701Z" fill="#F9F5EC"/>
<path fill-rule="evenodd" clip-rule="evenodd" d="M14.8056 14.797L6.63364 7.58875C5.56278 6.668 6.26793 5.14983 6.26793 5.14983L6.09936 5.00439L4.39021 7.09593C3.43021 8.25274 3.59878 9.99186 4.74507 10.9753L12.9171 18.1829C13.9879 19.1037 13.2828 20.6224 13.2828 20.6224L13.4514 20.7678L15.1605 18.6763C16.1205 17.5195 15.9519 15.7804 14.8056 14.797Z" fill="#F9F5EC"/>
<path fill-rule="evenodd" clip-rule="evenodd" d="M11.0394 19.4142L2.86744 12.2065C1.79659 11.2857 2.50173 9.76758 2.50173 9.76758L2.33373 9.62158L0.624587 11.7131C-0.335413 12.8699 -0.166841 14.609 0.979444 15.593L9.15087 22.8007C10.2223 23.7214 9.51659 25.2396 9.51659 25.2396L9.68459 25.3856L11.3937 23.294C12.3537 22.1372 12.1852 20.3981 11.0389 19.4142H11.0394Z" fill="#F9F5EC"/>
<path fill-rule="evenodd" clip-rule="evenodd" d="M152.734 23.0603H165.161V19.3566H157.565V14.2858H163.298V10.8389H157.565V6.39459H164.753V2.69091H152.734V23.0603ZM165.413 23.0603H170.331L173.678 15.5964L177.054 23.0603H182.496L177.228 12.4343L181.885 2.69146H176.996L174.114 9.30058L171.175 2.69146H165.762L170.68 12.5769L165.413 23.0609V23.0603ZM182.99 23.0603H187.821V15.4538H189.771C194.311 15.4538 196.843 13.5452 196.843 9.58531V8.73057C196.843 4.74217 194.515 2.69091 189.626 2.69091H182.99V23.0603ZM187.821 12.1495V6.28103H189.451C191.256 6.28103 192.157 6.93607 192.157 8.78819V9.55734C192.157 11.3239 191.255 12.1501 189.451 12.1501H187.821V12.1495ZM197.763 23.0603H202.594V15.055H204.049L207.716 23.0603H212.808L208.617 14.2002C210.538 13.4881 211.906 12.0919 211.906 9.2715V8.53087C211.906 4.59952 209.374 2.69091 204.572 2.69091H197.762V23.0603H197.763ZM202.594 11.8928V6.309H204.398C206.232 6.309 207.192 6.96404 207.192 8.67351V9.35708C207.192 11.1521 206.261 11.8928 204.398 11.8928H202.594ZM213.502 23.0603H225.928V19.3566H218.333V14.2858H224.066V10.8389H218.333V6.39459H225.521V2.69091H213.502V23.0603ZM233.892 23.3736C238.374 23.3736 240.993 20.9235 240.993 17.1348C240.993 12.9181 238.403 11.608 234.561 10.5542C232.117 9.84151 231.448 9.27206 231.448 7.87639C231.448 6.65134 232.204 5.91072 233.601 5.91072C235.028 5.91072 235.9 6.56576 236.017 8.33229H240.556C240.353 4.28683 237.85 2.40674 233.63 2.40674C229.41 2.40674 226.82 4.74272 226.82 8.21818C226.82 11.9498 228.77 13.4887 232.932 14.7137C235.318 15.3973 236.278 15.9103 236.278 17.5912C236.278 19.0725 235.405 19.8701 233.892 19.8701C231.855 19.8701 231.157 18.9013 231.069 16.9356H226.413C226.529 21.2373 229.12 23.3741 233.893 23.3741L233.892 23.3736ZM248.898 23.3736C253.38 23.3736 255.999 20.9235 255.999 17.1348C255.999 12.9181 253.409 11.608 249.568 10.5542C247.123 9.84151 246.454 9.27206 246.454 7.87639C246.454 6.65134 247.21 5.91072 248.607 5.91072C250.033 5.91072 250.906 6.56576 251.022 8.33229H255.562C255.358 4.28683 252.856 2.40674 248.636 2.40674C244.416 2.40674 241.826 4.74272 241.826 8.21818C241.826 11.9498 243.776 13.4887 247.938 14.7137C250.324 15.3973 251.285 15.9103 251.285 17.5912C251.285 19.0725 250.412 19.8701 248.898 19.8701C246.861 19.8701 246.163 18.9013 246.076 16.9356H241.42C241.536 21.2373 244.126 23.3741 248.899 23.3741L248.898 23.3736Z" fill="#F9F5EC"/>
</g>
<defs>
<clipPath id="clip0_1393_4723">
<rect width="256" height="25" fill="white" transform="translate(0 0.387207)"/>
</clipPath>
</defs>
</svg>
