<svg width="149" height="26" viewBox="0 0 149 26" fill="none" xmlns="http://www.w3.org/2000/svg">
<path d="M11.3979 0.289919C6.82825 0.777536 3.0109 3.36888 1.28334 7.17229C0.447421 9.03917 0.252374 10.1119 0.266306 12.954C0.266306 15.9633 0.475285 16.9386 1.49232 19.0144C3.63783 23.3612 8.43042 25.8689 14.045 25.5903C18.6425 25.3535 22.237 23.5145 24.4103 20.2683C26.4305 17.259 27.0156 12.8705 25.9429 8.92772C24.6333 4.09334 20.5233 0.861128 14.9506 0.275988C13.4598 0.122736 12.9722 0.122736 11.3979 0.289919ZM14.5744 6.11347C15.2571 6.53143 15.7447 7.57632 15.9397 9.03917C16.1348 10.4742 16.0233 17.259 15.8004 17.9835C15.5775 18.694 15.0899 19.3767 14.5326 19.7528C14.1286 20.0315 13.9057 20.0733 13.2091 20.0315C12.1084 19.9618 11.5512 19.5717 11.0636 18.5408L10.7013 17.7606L10.6595 13.4417C10.6038 8.7466 10.6874 7.86889 11.2865 6.85186C11.9273 5.7373 13.432 5.40294 14.5744 6.11347Z" fill="#F9F5EC"/>
<path d="M69.7031 12.9544V25.0752H73.8827H78.0623V12.9544V0.833633H73.8827H69.7031V12.9544Z" fill="#F9F5EC"/>
<path d="M127.102 12.9544V25.0752H131.072H135.043L135.071 21.3275L135.112 17.5659L137.606 21.3275L140.1 25.0752H144.461C146.871 25.0752 148.835 25.0473 148.835 25.0055C148.835 24.9777 147.331 22.8322 145.478 20.2547C143.639 17.6634 142.092 15.4761 142.064 15.3925C142.023 15.3089 143.416 13.4699 145.143 11.3104C146.871 9.151 148.278 7.35378 148.278 7.31198C148.278 7.27019 146.355 7.24232 144.001 7.24232L139.71 7.25625L137.411 10.6835L135.112 14.1247L135.071 7.47917L135.043 0.833633H131.072H127.102V12.9544Z" fill="#F9F5EC"/>
<path d="M55.6897 4.66466L54.7424 7.22813L53.1959 7.26993L51.6634 7.31173L51.6216 9.5687L51.5938 11.8257L53.0148 11.8675L54.4498 11.9093L54.5195 16.4371C54.5891 20.77 54.603 21.0068 54.9095 21.7731C55.5504 23.3474 57.1387 24.657 58.9916 25.1446C60.8306 25.6462 64.439 25.2421 66.2223 24.3505L67.1279 23.8907L67.1697 21.7731L67.2114 19.6415L66.8492 19.7808C66.6402 19.8644 66.083 19.9201 65.6093 19.9201C64.439 19.9201 63.6449 19.5022 63.199 18.6663C62.8925 18.095 62.8786 17.9279 62.8786 14.9464V11.8396H65.0381H67.1975V9.54084V7.24207H65.0381H62.8786V4.66466V2.08725H59.7579H56.6371L55.6897 4.66466Z" fill="#F9F5EC"/>
<path d="M87.8854 7.19989C84.6532 7.88255 82.2569 9.62404 80.9752 12.1875C79.7213 14.7092 79.7213 17.7464 80.9473 20.3377C81.9504 22.4554 84.277 24.2108 87.0495 24.9631C88.6099 25.3811 92.6501 25.4229 94.2244 25.0188C97.9582 24.0575 100.243 22.0653 101.204 18.9445C101.455 18.1225 101.525 17.5652 101.539 16.3671C101.539 14.542 101.344 13.6782 100.605 12.1457C99.3793 9.63798 96.8715 7.84076 93.6393 7.18596C92.274 6.90732 89.2229 6.90732 87.8854 7.19989ZM91.7028 11.4909C91.9257 11.6024 92.2182 11.9228 92.3576 12.2154C92.5944 12.6891 92.6223 13.0931 92.6223 16.2278C92.6223 19.3207 92.5944 19.7665 92.3715 20.1705C91.5774 21.6194 89.5154 21.3826 89.0696 19.7944C89 19.5157 88.9303 17.8439 88.9303 16.0885C88.9303 13.2603 88.9721 12.8145 89.195 12.3129C89.3343 11.9925 89.599 11.6302 89.7801 11.5049C90.1842 11.2262 91.1873 11.2123 91.7028 11.4909Z" fill="#F9F5EC"/>
<path d="M111.5 7.17244C109.201 7.64613 107.627 8.45418 106.122 9.95883C104.353 11.7003 103.559 13.6508 103.559 16.2282C103.559 20.561 105.871 23.5285 110.316 24.8799C111.5 25.2422 111.723 25.27 114.217 25.27C116.529 25.27 117.003 25.2282 117.978 24.9635C121.628 23.9465 123.955 21.787 124.805 18.5966C125.097 17.496 125.097 15.1136 124.805 13.9991C124.373 12.3412 123.704 11.1848 122.464 9.97276C120.904 8.42631 119.121 7.53467 116.738 7.11671C115.61 6.90773 112.614 6.94953 111.5 7.17244ZM115.387 11.6446C116.056 12.2019 116.125 12.6616 116.069 16.5068C116.028 19.8784 116.014 20.0037 115.707 20.4356C114.983 21.4527 113.408 21.3551 112.795 20.2685C112.489 19.7251 112.475 19.5858 112.475 16.2561C112.475 12.4944 112.531 12.1461 113.241 11.5889C113.812 11.143 114.83 11.1709 115.387 11.6446Z" fill="#F9F5EC"/>
<path d="M28.5638 7.33948C28.4106 7.49273 28.4523 19.7668 28.6195 20.7559C28.94 22.7203 30.2356 24.4479 31.8796 25.0609C32.8409 25.4231 34.6242 25.451 35.7248 25.1306C37.6474 24.5593 39.5143 23.0547 40.5313 21.2435L41.0747 20.2683L41.1165 22.6785L41.1443 25.0748H45.3239H49.5035V16.1584V7.24195H45.3239H41.1443V12.0903C41.1443 16.5346 41.1165 17.0222 40.8796 17.7327C40.3224 19.3209 39.4307 20.1986 38.3301 20.1986C37.731 20.1986 37.2713 19.7389 37.0901 18.9866C37.0205 18.694 36.9648 15.9355 36.9648 12.8426V7.24195H32.813C30.5282 7.24195 28.6056 7.28375 28.5638 7.33948Z" fill="#F9F5EC"/>
</svg>
