<svg width="104" height="26" viewBox="0 0 104 26" fill="none" xmlns="http://www.w3.org/2000/svg">
<path d="M30.1177 0.111535C24.0989 0.153522 19.1758 6.68049 19.1758 12.3735C19.1758 18.3645 22.7847 25.6725 30.1177 25.6487C37.4507 25.625 41.2568 17.7573 41.2568 12.3735C41.2568 6.42664 36.1365 0.0695494 30.1177 0.111535ZM30.1177 0.334834C35.1552 0.334834 36.5142 5.76324 36.5142 12.3735C36.5142 21.0956 34.8748 25.3987 30.1177 25.3905C25.3606 25.3823 23.813 21.8604 23.813 12.3735C23.813 6.43071 25.0802 0.334834 30.1177 0.334834Z" fill="#F9F5EC"/>
<path d="M43.2462 12.535C43.2192 6.05721 48.5327 0.319154 53.0307 0.0344619C54.6554 -0.0778477 56.7438 0.648101 57.9631 1.16524C58.8484 1.54076 60.6558 0.997208 60.9767 0H61.1517V8.82394H60.9767C60.9767 8.44777 59.3019 0.25631 53.0307 0.25631C48.3985 0.25631 47.951 8.20354 47.951 12.535C47.951 16.8664 48.086 25.4412 53.4915 25.4412C56.1101 25.4412 58.0483 24.3233 58.5508 22.0619V15.1858H56.3528V14.8929H64.8725V15.1858H62.7712V25.2386H62.6001C62.6001 25.2386 62.2585 23.7882 60.525 23.793C58.3093 23.7992 56.2198 25.6773 53.6728 25.6545C46.9367 25.594 43.2732 19.0127 43.2462 12.535Z" fill="#F9F5EC"/>
<path d="M2.65277 0.981382H0V0.69043H9.29279V0.981382H6.96145L13.6014 18.5755C15.6777 12.3383 17.2862 7.72783 19.4508 0.981382H17.1449V0.69043H22.0515V0.981382H19.8171L11.7469 25.5286L2.65277 0.981382Z" fill="#F9F5EC"/>
<path d="M66.1725 19.5186L66.1305 0.952906H63.6055V0.674805H72.9082V0.952906H70.3847L70.4407 21.3092C70.9993 23.6401 71.9926 25.4088 75.386 25.4351C78.7793 25.4615 81.0862 23.4765 81.9436 20.7638V0.952906H79.055L79.055 0.682997H102.697L102.746 9.59526H102.519C102.081 3.84094 99.8051 1.66623 95.8253 1.03178C94.4559 0.813471 93.0192 0.975309 91.203 0.961534V12.3359C92.7845 12.4551 94.4692 12.3576 95.6045 11.4062C96.6369 10.541 96.9287 8.5421 97.0046 7.73003H97.2045V17.6336H96.9882C96.9257 17.6336 96.8426 15.1483 95.6045 13.9692C94.3583 12.7824 92.7713 12.4906 91.203 12.7734V24.9237C93.4183 24.9237 95.1841 25.1068 96.7176 24.6966C101.379 23.4496 103.02 19.6125 103.007 15.764H103.267V25.2114H84.7223V24.9237H86.8191V0.952906H82.2888V20.7638C81.7753 22.6593 79.8986 25.7952 75.0891 25.7738C70.6173 25.7539 66.1822 23.7868 66.1725 19.5186Z" fill="#F9F5EC"/>
</svg>
